<svg xmlns="http://www.w3.org/2000/svg" viewBox="0 0 750 500"><g id="freepik--background-complete--inject-23"><path d="M299.46,128.73c7.8,0,139.08.86,147.33.6.59,0,.91-.89.32-1.18-5.2-2.58-11.1-2.06-16.51-3.88-3.18-1.07-5.13-3.15-7.34-5.54a15.1,15.1,0,0,0-6.83-4.45A14.45,14.45,0,0,0,409,114c-2.66.64-5,2.16-7.51,3.12-6.31,2.38-12.44.12-16.94-4.55-3.71-3.84-7.37-7.47-12.41-9.54a16.46,16.46,0,0,0-13.16-.18c-4.81,2.18-8.11,6.57-12.64,9.2-5.36,3.14-11.77,2.4-17.69,3.34s-10.47,5.93-15.67,8.81a11.11,11.11,0,0,1-5.66,1.75,33.69,33.69,0,0,1-3.45-.49c-1.78-.22-3.48-.17-4.68,1.32C298.88,127.19,298.94,128.73,299.46,128.73Z" style="fill:#ebebeb"></path><path d="M454.14,105.35c7.8,0,139.08.86,147.33.6.6,0,.91-.89.32-1.18-5.2-2.58-11.1-2.06-16.5-3.88-3.18-1.07-5.13-3.15-7.34-5.54a15.31,15.31,0,0,0-6.83-4.46,14.44,14.44,0,0,0-7.44-.23c-2.66.63-5,2.16-7.52,3.12-6.3,2.38-12.43.12-16.93-4.55-3.72-3.84-7.37-7.47-12.42-9.55a16.52,16.52,0,0,0-13.15-.18c-4.81,2.18-8.12,6.57-12.64,9.21-5.36,3.13-11.78,2.39-17.7,3.34s-10.47,5.93-15.66,8.8a11,11,0,0,1-5.66,1.76c-1.16,0-2.3-.35-3.45-.49-1.79-.22-3.48-.17-4.69,1.32C453.57,103.81,453.63,105.35,454.14,105.35Z" style="fill:#ebebeb"></path><path d="M159.72,91.46c7.8,0,139.08.86,147.33.6.59,0,.91-.89.32-1.18-5.2-2.58-11.1-2.06-16.5-3.88-3.18-1.07-5.13-3.15-7.34-5.54A15.31,15.31,0,0,0,276.7,77a14.44,14.44,0,0,0-7.44-.23c-2.66.63-5,2.16-7.52,3.12-6.3,2.38-12.43.12-16.94-4.55-3.71-3.84-7.36-7.47-12.41-9.55a16.52,16.52,0,0,0-13.15-.18c-4.82,2.18-8.12,6.57-12.64,9.21-5.36,3.13-11.78,2.39-17.7,3.34s-10.47,5.93-15.66,8.8a11,11,0,0,1-5.66,1.76c-1.16,0-2.3-.35-3.45-.49-1.79-.22-3.49-.17-4.69,1.32C159.15,89.91,159.21,91.46,159.72,91.46Z" style="fill:#ebebeb"></path><path d="M363.62,63.85c5.7,0,101.54.63,107.57.44.43,0,.66-.65.23-.86-3.8-1.88-8.1-1.51-12.05-2.83-2.32-.79-3.75-2.31-5.36-4.05a11,11,0,0,0-5-3.25,10.42,10.42,0,0,0-5.43-.17c-1.94.46-3.63,1.57-5.49,2.28-4.6,1.73-9.07.08-12.36-3.32-2.71-2.81-5.38-5.46-9.06-7a12,12,0,0,0-9.61-.14c-3.51,1.6-5.92,4.8-9.23,6.73-3.91,2.28-8.59,1.74-12.92,2.43s-7.64,4.33-11.43,6.43a8.05,8.05,0,0,1-4.13,1.28c-.85,0-1.68-.25-2.52-.35-1.31-.17-2.55-.13-3.42,1C363.2,62.73,363.25,63.85,363.62,63.85Z" style="fill:#ebebeb"></path><path d="M576.09,185c5.7,0,101.54.63,107.57.44.43,0,.66-.65.23-.86-3.8-1.88-8.1-1.51-12-2.84-2.32-.78-3.75-2.3-5.36-4a11,11,0,0,0-5-3.25,10.42,10.42,0,0,0-5.43-.17c-1.94.46-3.63,1.57-5.48,2.28-4.61,1.73-9.08.08-12.37-3.33-2.71-2.8-5.38-5.45-9.06-7a12.07,12.07,0,0,0-9.61-.13c-3.51,1.59-5.92,4.8-9.23,6.72-3.91,2.29-8.59,1.75-12.91,2.44s-7.65,4.33-11.44,6.43a8.05,8.05,0,0,1-4.13,1.28,23.88,23.88,0,0,1-2.52-.36c-1.31-.16-2.55-.12-3.42,1C575.67,183.86,575.72,185,576.09,185Z" style="fill:#ebebeb"></path><path d="M66.21,187.29c5.7,0,101.54.63,107.57.44.43,0,.66-.65.23-.86-3.79-1.88-8.1-1.51-12-2.84-2.32-.78-3.74-2.3-5.36-4a11.07,11.07,0,0,0-5-3.25,10.43,10.43,0,0,0-5.43-.17c-1.95.46-3.64,1.57-5.49,2.27-4.61,1.74-9.08.09-12.37-3.32-2.71-2.8-5.38-5.45-9.06-7a12.05,12.05,0,0,0-9.6-.13c-3.52,1.59-5.93,4.8-9.23,6.72-3.92,2.29-8.6,1.75-12.92,2.44s-7.65,4.33-11.44,6.43A8,8,0,0,1,72,185.29a23.88,23.88,0,0,1-2.52-.36c-1.3-.16-2.54-.12-3.42,1C65.8,186.16,65.84,187.29,66.21,187.29Z" style="fill:#ebebeb"></path><path d="M682.94,248.54s-33.8-4.21-61.81-16.45c-18.2-8-45.47-14.5-75.8-15.46-26.93-.85-70.71,1.67-122.09,10.61-76.14,13.26-141.76,21.3-141.76,21.3Z" style="fill:#dbdbdb"></path><path d="M67.06,248.54S129.72,205.8,202.57,202c44.31-2.33,94.38,6.51,137.78,17.49,72.33,18.29,129.1,29.09,129.1,29.09Z" style="fill:#ebebeb"></path><g style="opacity:0.5"><path d="M195.2,248.53H163.83c-16-2.76-32-5.82-47.9-8-10.51-1.52-21.3-1.89-32-2.13,20.4-7.23,44.5-5.49,65.73-1.7A301.22,301.22,0,0,1,195.2,248.53Z" style="fill:#dbdbdb"></path><path d="M251.49,248.53H237.16c-15.16-4.72-30.43-9-46.26-12.51-16-3.63-32.3-6.64-48.77-8.79a253.75,253.75,0,0,0-30.19-2.5h-.06l.14,0c24.2-6.43,58-2.88,82.17,2.6C214.54,231.93,234.27,238.9,251.49,248.53Z" style="fill:#dbdbdb"></path><path d="M310.1,248.53h-11c-6.14-2.27-12.26-4.51-18.43-6.69C237.63,227,190.35,211.45,142.4,213.33h-.29l1.79-.48c51.65-13.33,120,9.87,161.85,33.17C307.21,246.86,308.67,247.69,310.1,248.53Z" style="fill:#dbdbdb"></path><path d="M349.81,248.53h-4.27c-10.39-4.69-20.82-9.08-31.41-13.26-37.21-14.31-87.54-32.63-129.52-31.58q8.85-1.23,18-1.73a310.77,310.77,0,0,1,34.88.26h.06c37.31,5.68,76.3,22.27,100.36,37.8C342,242.72,346,245.53,349.81,248.53Z" style="fill:#dbdbdb"></path><path d="M398.08,248.53h-6.53c-8.07-4-16.18-7.8-24.4-11.47-21.63-9.43-47.84-20.48-74.4-28,16.33,2.94,32.38,6.53,47.6,10.38q9.56,2.42,18.73,4.65a235.88,235.88,0,0,1,31.45,18.66C393.12,244.63,395.65,246.55,398.08,248.53Z" style="fill:#dbdbdb"></path><path d="M437.84,248.53h-9.55q-8.13-3.89-16.38-7.57c-7.14-3.12-14.78-6.41-22.78-9.69,12.75,3,24.44,5.58,34.72,7.81,4.12,2.54,7.95,5.08,11.44,7.58C436.15,247.28,437,247.9,437.84,248.53Z" style="fill:#dbdbdb"></path></g><path d="M85.18,318.18c-.58-.24-.83.7-.26.94a3.14,3.14,0,0,1,1.83,3.8.49.49,0,0,0,.94.26A4.15,4.15,0,0,0,85.18,318.18Z" style="fill:#dbdbdb"></path><path d="M89.42,317.28a7.41,7.41,0,0,0-.56,4.28c.1.62,1,.36.93-.25a6.24,6.24,0,0,1,.47-3.54C90.51,317.2,89.67,316.71,89.42,317.28Z" style="fill:#dbdbdb"></path><path d="M616.68,291.36c-.58-.23-.83.7-.26.94a3.14,3.14,0,0,1,1.83,3.81.49.49,0,0,0,.94.25A4.15,4.15,0,0,0,616.68,291.36Z" style="fill:#dbdbdb"></path><path d="M620.92,290.46a7.51,7.51,0,0,0-.56,4.29c.1.61,1,.35.94-.26a6.23,6.23,0,0,1,.46-3.54C622,290.38,621.17,289.89,620.92,290.46Z" style="fill:#dbdbdb"></path><path d="M185.1,458.44c-.58-.24-.83.7-.26.93a3.14,3.14,0,0,1,1.83,3.81.49.49,0,0,0,.94.26A4.15,4.15,0,0,0,185.1,458.44Z" style="fill:#dbdbdb"></path><path d="M189.34,457.53a7.44,7.44,0,0,0-.56,4.29c.1.61,1,.35.94-.26a6.15,6.15,0,0,1,.46-3.54C190.43,457.46,189.59,457,189.34,457.53Z" style="fill:#dbdbdb"></path><path d="M626.54,453.06c-.58-.24-.83.7-.26.93a3.14,3.14,0,0,1,1.83,3.81.49.49,0,0,0,.94.26A4.14,4.14,0,0,0,626.54,453.06Z" style="fill:#dbdbdb"></path><path d="M630.78,452.15a7.52,7.52,0,0,0-.56,4.29c.1.61,1,.35.94-.26a6.23,6.23,0,0,1,.46-3.54C631.87,452.07,631,451.58,630.78,452.15Z" style="fill:#dbdbdb"></path><path d="M278.56,317c-.57-.24-.83.7-.26.94a3.15,3.15,0,0,1,1.84,3.8.48.48,0,0,0,.93.26A4.13,4.13,0,0,0,278.56,317Z" style="fill:#dbdbdb"></path><path d="M282.81,316.06a7.41,7.41,0,0,0-.57,4.28c.1.62,1,.36.94-.25a6.31,6.31,0,0,1,.46-3.54C283.89,316,283.06,315.49,282.81,316.06Z" style="fill:#dbdbdb"></path><path d="M398.65,442.43c-.58-.24-.83.7-.26.94a3.14,3.14,0,0,1,1.83,3.8.49.49,0,0,0,.94.26A4.15,4.15,0,0,0,398.65,442.43Z" style="fill:#dbdbdb"></path><path d="M402.89,441.53a7.41,7.41,0,0,0-.56,4.28c.09.62,1,.36.93-.25a6.27,6.27,0,0,1,.47-3.55C404,441.45,403.14,441,402.89,441.53Z" style="fill:#dbdbdb"></path><path d="M395.66,279.37c-.55-.29-1,.54-.49.83a3,3,0,0,1,1.6,2.94c0,.62.92.62,1,0A3.9,3.9,0,0,0,395.66,279.37Z" style="fill:#dbdbdb"></path><path d="M398.55,277.85c-.3-.55-1.14-.06-.84.49a7.78,7.78,0,0,1,.91,4.15c0,.62.94.62,1,0A8.7,8.7,0,0,0,398.55,277.85Z" style="fill:#dbdbdb"></path><path d="M400.8,278.49a5.09,5.09,0,0,0-.62,3.1c.07.61,1,.62,1,0a4.17,4.17,0,0,1,.48-2.61C401.93,278.44,401.1,278,400.8,278.49Z" style="fill:#dbdbdb"></path><path d="M64.84,375.49c-.55-.29-1,.55-.49.84A3,3,0,0,1,66,379.27c0,.62.92.61,1,0A4,4,0,0,0,64.84,375.49Z" style="fill:#dbdbdb"></path><path d="M67.73,374c-.3-.55-1.13-.06-.84.49a7.75,7.75,0,0,1,.92,4.14c0,.63.93.62,1,0A8.79,8.79,0,0,0,67.73,374Z" style="fill:#dbdbdb"></path><path d="M70,374.62a5.06,5.06,0,0,0-.62,3.1c.08.61,1,.62,1,0a4.23,4.23,0,0,1,.49-2.61C71.12,374.56,70.28,374.07,70,374.62Z" style="fill:#dbdbdb"></path><path d="M551.38,366c-.56-.3-1,.54-.49.83a3,3,0,0,1,1.6,2.94c0,.62.92.62,1,0A3.93,3.93,0,0,0,551.38,366Z" style="fill:#dbdbdb"></path><path d="M554.26,364.47c-.29-.55-1.13-.06-.84.49a7.69,7.69,0,0,1,.92,4.15c0,.62.94.62,1,0A8.71,8.71,0,0,0,554.26,364.47Z" style="fill:#dbdbdb"></path><path d="M556.51,365.11a5.16,5.16,0,0,0-.62,3.1c.08.61,1.05.62,1,0a4.24,4.24,0,0,1,.49-2.61C557.65,365.06,556.81,364.57,556.51,365.11Z" style="fill:#dbdbdb"></path><path d="M679.85,308.93c-.55-.29-1,.55-.49.84a3,3,0,0,1,1.61,2.94c-.06.62.91.61,1,0A3.92,3.92,0,0,0,679.85,308.93Z" style="fill:#dbdbdb"></path><path d="M682.74,307.42c-.3-.55-1.13-.06-.84.49a7.75,7.75,0,0,1,.92,4.14c0,.63.93.62,1,0A8.79,8.79,0,0,0,682.74,307.42Z" style="fill:#dbdbdb"></path><path d="M685,308.06a5.06,5.06,0,0,0-.62,3.1c.07.61,1,.61,1,0a4.21,4.21,0,0,1,.48-2.61C686.13,308,685.29,307.51,685,308.06Z" style="fill:#dbdbdb"></path><path d="M313,426.6c-.55-.29-1,.55-.49.84a3,3,0,0,1,1.6,2.94c-.05.62.92.62,1,0A3.92,3.92,0,0,0,313,426.6Z" style="fill:#dbdbdb"></path><path d="M315.9,425.09c-.3-.55-1.14-.06-.84.49a7.74,7.74,0,0,1,.91,4.14c0,.63.94.63,1,0A8.69,8.69,0,0,0,315.9,425.09Z" style="fill:#dbdbdb"></path><path d="M318.15,425.73a5.06,5.06,0,0,0-.62,3.1c.07.61,1,.62,1,0a4.17,4.17,0,0,1,.48-2.61C319.28,425.67,318.45,425.18,318.15,425.73Z" style="fill:#dbdbdb"></path><path d="M439.08,374.54a.49.49,0,0,1,.49.84,3.92,3.92,0,0,0-1.95,3.65c0,.62-.94.62-1,0A4.89,4.89,0,0,1,439.08,374.54Z" style="fill:#dbdbdb"></path><path d="M435.53,376.86l.33,1.95c.11.61-.83.87-.93.26s-.23-1.3-.34-1.95S435.42,376.25,435.53,376.86Z" style="fill:#dbdbdb"></path><path d="M664.45,395.89a.49.49,0,0,1,.49.84,3.92,3.92,0,0,0-2,3.65c0,.62-.94.62-1,0A4.89,4.89,0,0,1,664.45,395.89Z" style="fill:#dbdbdb"></path><path d="M660.9,398.21l.33,2c.11.61-.83.87-.93.26s-.23-1.3-.34-1.95S660.79,397.6,660.9,398.21Z" style="fill:#dbdbdb"></path><path d="M509.82,286.19a.48.48,0,0,1,.48.84,3.92,3.92,0,0,0-1.94,3.65c0,.62-.94.62-1,0A4.89,4.89,0,0,1,509.82,286.19Z" style="fill:#dbdbdb"></path><path d="M506.26,288.51c.12.65.23,1.3.34,1.95s-.83.87-.94.26l-.33-2C505.22,288.16,506.16,287.9,506.26,288.51Z" style="fill:#dbdbdb"></path><path d="M117.53,424.82a.49.49,0,0,0-.49.84,4,4,0,0,1,1.95,3.65c0,.63.93.62,1,0A4.92,4.92,0,0,0,117.53,424.82Z" style="fill:#dbdbdb"></path><path d="M121.08,427.14c-.11.65-.23,1.3-.34,1.95s.83.88.94.26l.33-2C122.12,426.79,121.18,426.53,121.08,427.14Z" style="fill:#dbdbdb"></path><path d="M103.45,280.68c-.47-.4-1.16.28-.68.68a4.56,4.56,0,0,1,1.68,3.8c0,.62.93.62,1,0A5.4,5.4,0,0,0,103.45,280.68Z" style="fill:#dbdbdb"></path><path d="M300.6,441.21c-.48-.39-1.17.29-.68.69a4.53,4.53,0,0,1,1.67,3.8c0,.62.94.62,1,0A5.43,5.43,0,0,0,300.6,441.21Z" style="fill:#dbdbdb"></path><path d="M360.87,372c-.48-.39-1.17.29-.69.69a4.5,4.5,0,0,1,1.68,3.8c0,.62.93.62,1,0A5.45,5.45,0,0,0,360.87,372Z" style="fill:#dbdbdb"></path><path d="M323.05,295.11c-.48-.4-1.17.28-.69.68a4.51,4.51,0,0,1,1.68,3.8c0,.62.94.62,1,0A5.39,5.39,0,0,0,323.05,295.11Z" style="fill:#dbdbdb"></path><path d="M439.9,301.21c.48-.4,1.17.28.69.68a4.51,4.51,0,0,0-1.68,3.8c0,.62-.93.62-1,0A5.42,5.42,0,0,1,439.9,301.21Z" style="fill:#dbdbdb"></path><path d="M493.16,458.66c.48-.39,1.17.29.69.69a4.5,4.5,0,0,0-1.68,3.8c0,.62-.94.62-1,0A5.45,5.45,0,0,1,493.16,458.66Z" style="fill:#dbdbdb"></path><path d="M674.43,332.41c.47-.4,1.16.28.68.68a4.56,4.56,0,0,0-1.68,3.8c0,.62-.93.62-1,0A5.4,5.4,0,0,1,674.43,332.41Z" style="fill:#dbdbdb"></path><path d="M198.68,384.66c.47-.39,1.16.29.68.69a4.53,4.53,0,0,0-1.68,3.79c0,.63-.93.63-1,0A5.43,5.43,0,0,1,198.68,384.66Z" style="fill:#dbdbdb"></path><path d="M471.36,427.52a5.76,5.76,0,0,0-1.55,5.13c.12.62,1.05.36.94-.26a4.72,4.72,0,0,1,1.29-4.18C472.48,427.76,471.79,427.08,471.36,427.52Z" style="fill:#dbdbdb"></path><path d="M467.82,428.05v3.26a.49.49,0,0,0,1,0v-3.26A.49.49,0,0,0,467.82,428.05Z" style="fill:#dbdbdb"></path><path d="M473,429.08a3,3,0,0,0-1.37,2.64c0,.62,1,.62,1,0a2,2,0,0,1,.89-1.8C474,429.57,473.53,428.73,473,429.08Z" style="fill:#dbdbdb"></path><path d="M368.76,341.65a5.75,5.75,0,0,0-1.55,5.13c.12.61,1.05.35.94-.26a4.74,4.74,0,0,1,1.29-4.19C369.88,341.89,369.19,341.2,368.76,341.65Z" style="fill:#dbdbdb"></path><path d="M365.22,342.18v3.25a.49.49,0,0,0,1,0v-3.25A.49.49,0,0,0,365.22,342.18Z" style="fill:#dbdbdb"></path><path d="M370.41,343.2a3,3,0,0,0-1.37,2.64c0,.62,1,.63,1,0a2,2,0,0,1,.89-1.8C371.42,343.7,370.93,342.86,370.41,343.2Z" style="fill:#dbdbdb"></path><path d="M646.57,379.3a5.73,5.73,0,0,0-1.54,5.13c.11.61,1,.35.93-.26a4.72,4.72,0,0,1,1.29-4.18C647.69,379.54,647,378.85,646.57,379.3Z" style="fill:#dbdbdb"></path><path d="M643,379.83v3.26a.49.49,0,0,0,1,0v-3.26A.49.49,0,0,0,643,379.83Z" style="fill:#dbdbdb"></path><path d="M648.22,380.86a3,3,0,0,0-1.37,2.63c0,.62,1,.63,1,0a2,2,0,0,1,.89-1.8C649.23,381.35,648.75,380.51,648.22,380.86Z" style="fill:#dbdbdb"></path><polygon points="385.64 248.54 377.22 165.77 372.77 165.77 364.36 248.54 362.37 248.38 370.94 164.04 379.05 164.04 387.63 248.38 385.64 248.54" style="fill:#dbdbdb"></polygon><rect x="366.52" y="173.76" width="16.96" height="1.73" style="fill:#dbdbdb"></rect><rect x="365.02" y="189.56" width="19.95" height="1.73" style="fill:#dbdbdb"></rect><rect x="363.36" y="207.09" width="23.28" height="1.73" style="fill:#dbdbdb"></rect><rect x="361.7" y="227.39" width="26.6" height="1.73" style="fill:#dbdbdb"></rect><polygon points="384.77 228.46 366.23 208.15 366.81 207.75 385.36 228.05 384.77 228.46" style="fill:#dbdbdb"></polygon><polygon points="365.23 228.46 364.64 228.05 383.22 207.75 383.81 208.15 365.23 228.46" style="fill:#dbdbdb"></polygon><polygon points="383.09 207.54 367.64 190.63 368.23 190.23 383.68 207.14 383.09 207.54" style="fill:#dbdbdb"></polygon><polygon points="366.9 207.54 366.32 207.14 381.8 190.23 382.39 190.63 366.9 207.54" style="fill:#dbdbdb"></polygon><polygon points="379.29 189.83 370.89 175.52 371.56 175.23 379.96 189.53 379.29 189.83" style="fill:#dbdbdb"></polygon><polygon points="370.84 189.83 370.17 189.53 378.59 175.23 379.26 175.52 370.84 189.83" style="fill:#dbdbdb"></polygon><polygon points="378.06 174.46 371.83 165.47 372.48 165.14 378.7 174.13 378.06 174.46" style="fill:#dbdbdb"></polygon><polygon points="371.94 174.46 371.3 174.13 377.54 165.14 378.18 165.47 371.94 174.46" style="fill:#dbdbdb"></polygon><polygon points="380.22 139.19 375 164.49 370.8 139.19 380.22 139.19" style="fill:#a6a6a6"></polygon><polygon points="360.8 142.91 375 164.49 354.14 149.57 360.8 142.91" style="fill:#a6a6a6"></polygon><polygon points="349.7 159.27 375 164.49 349.7 168.69 349.7 159.27" style="fill:#a6a6a6"></polygon><polygon points="353.42 178.69 375 164.49 360.08 185.35 353.42 178.69" style="fill:#a6a6a6"></polygon><polygon points="389.2 186.07 375 164.49 395.86 179.41 389.2 186.07" style="fill:#a6a6a6"></polygon><polygon points="400.3 169.71 375 164.49 400.3 160.29 400.3 169.71" style="fill:#a6a6a6"></polygon><polygon points="396.58 150.29 375 164.49 389.92 143.63 396.58 150.29" style="fill:#a6a6a6"></polygon><path d="M375,173.81a9.32,9.32,0,1,1,9.32-9.32A9.33,9.33,0,0,1,375,173.81Zm0-17.89a8.57,8.57,0,1,0,8.57,8.57A8.59,8.59,0,0,0,375,155.92Z" style="fill:#ebebeb"></path></g><g id="freepik--Floor--inject-23"><path d="M63.78,248.89c199.39-.61,423.05-.61,622.44,0-199.39.62-423,.62-622.44,0Z" style="fill:#263238"></path></g><g id="freepik--Farm--inject-23"><polygon points="477.76 143.88 477.76 192.3 639.51 192.3 622.43 164.04 588.87 143.88 477.76 143.88" style="fill:#498C79"></polygon><polygon points="477.76 143.88 477.76 192.3 639.51 192.3 622.43 164.04 588.87 143.88 477.76 143.88" style="opacity:0.5"></polygon><polygon points="477.76 164.04 477.76 192.3 639.51 192.3 622.43 164.04 477.76 164.04" style="opacity:0.1"></polygon><rect x="524.68" y="192.3" width="114.83" height="56.23" transform="translate(1164.18 440.84) rotate(180)" style="fill:#498C79"></rect><rect x="524.68" y="192.3" width="114.83" height="56.23" transform="translate(1164.18 440.84) rotate(180)" style="opacity:0.2"></rect><path d="M524.68,195.92H639.51v.85H524.68Zm0,5.67H639.51v-.86H524.68Zm0,4.81H639.51v-.85H524.68Zm0,4.82H639.51v-.86H524.68Zm0,4.81H639.51v-.85H524.68Zm0,4.82H639.51V220H524.68Zm0,4.81H639.51v-.85H524.68Zm0,4.82H639.51v-.86H524.68Zm0,4.81H639.51v-.85H524.68Zm0,4.82H639.51v-.86H524.68Zm0,4.81H639.51v-.85H524.68Z" style="opacity:0.1"></path><polygon points="430.86 192.3 430.86 248.54 524.68 248.54 524.68 192.3 507.6 164.04 477.76 146.33 447.94 164.04 430.86 192.3" style="fill:#498C79"></polygon><path d="M524.68,195.92v.85H430.86v-.85Zm-93.82,4.8v.86h93.82v-.86Zm.21-8.77h93.61v-.85H431.59Zm2.9-4.8h87.6l-.52-.86H434.49Zm2.92-4.82h81.76l-.52-.86H437.41Zm2.91-4.82h75.94l-.52-.86h-74.9Zm2.92-4.81h70.1l-.5-.86h-69.1Zm2.9-4.82h64.3l-.52-.86H446.14Zm4-4.82h56.34l-1.44-.86H451Zm8.08-4.81h40.16l-1.43-.85H459.13Zm8.12-4.82h23.93l-1.44-.85H467.24Zm8.12-4.82h7.7l-1.45-.85h-4.82Zm-43.06,56.94v.85h93.82v-.85Zm0,4.82v.85h93.82v-.85Zm0,4.8V216h93.82v-.86Zm0,4.82v.86h93.82V220Zm0,4.82v.86h93.82v-.86Zm0,4.81v.85h93.82v-.85Zm0,4.82v.85h93.82v-.85Zm0,4.82v.85h93.82v-.85Zm0,4.81v.85h93.82v-.85Z" style="opacity:0.1"></path><polygon points="431.39 195.49 449.47 165.58 477.76 148.77 506.07 165.58 523.49 194.41 642.49 194.41 642.49 190.2 525.86 190.2 509.12 162.5 477.76 143.88 446.42 162.5 427.79 193.32 431.39 195.49" style="fill:#fff"></polygon><path d="M431.39,195.49l18.06-29.94,28.28-16.83c0-.12,28.35,16.8,28.39,16.77s17.44,28.83,17.48,28.85c-.87,0,120.21-.55,118.64.06v-4.2c1.6.73-116.76-.11-116.38.14-.12.13-16.76-27.75-16.83-27.78.28.16-31.62-18.74-31.23-18.61,0,0-31.42,18.63-31.35,18.57l-18.65,30.8,3.59,2.17Zm0,0-3.6-2.17,18.6-30.85,31.37-18.67c.1.07,31.38,18.56,31.45,18.64-.1,0,17.13,28,16.65,27.62.08-.2,116.75,0,116.87-.11v4.45c.24.7-119-.1-119.31.13,0,0-17.53-29-17.4-28.87s-28.56-16.94-28.22-16.83c0,0-28.36,16.81-28.3,16.76l-18.11,29.9Z" style="fill:#263238"></path><rect x="608.19" y="204.77" width="19.93" height="12.04" transform="translate(1236.32 421.58) rotate(180)" style="fill:#263238"></rect><path d="M606.79,203.37h22.74v14.84H606.79Zm19.93,2.8H609.59v9.24h17.13Z" style="fill:#fff"></path><rect x="572.13" y="204.77" width="19.93" height="12.04" transform="translate(1164.18 421.58) rotate(180)" style="fill:#263238"></rect><path d="M570.72,203.37h22.74v14.84H570.72Zm19.94,2.8H573.53v9.24h17.13Z" style="fill:#fff"></path><rect x="536.06" y="204.77" width="19.93" height="12.04" transform="translate(1092.05 421.58) rotate(180)" style="fill:#263238"></rect><path d="M534.66,203.37h22.73v14.84H534.66Zm19.93,2.8H537.46v9.24h17.13Z" style="fill:#fff"></path><rect x="468.9" y="170.35" width="15.65" height="15.65" transform="translate(953.44 356.34) rotate(180)" style="fill:#263238"></rect><path d="M467.5,169H486V187.4H467.5Zm15.64,2.8H470.3v12.84h12.84Z" style="fill:#fff"></path><rect x="448.69" y="204.77" width="56.06" height="42.31" transform="translate(953.44 451.85) rotate(180)" style="fill:#455a64"></rect><path d="M447.29,203.37h58.86v45.11H447.29Zm56.06,2.8H450.09v39.51h53.26Z" style="fill:#fff"></path><rect x="465.36" y="224.52" width="50.75" height="2.8" transform="translate(31.37 510.26) rotate(-56.48)" style="fill:#fff"></rect><rect x="461.3" y="200.55" width="2.8" height="50.75" transform="translate(-47.8 293.14) rotate(-33.53)" style="fill:#fff"></rect><rect x="475.32" y="204.77" width="2.8" height="42.31" style="fill:#fff"></rect></g><g id="freepik--Shadows--inject-23"><ellipse cx="176.31" cy="350.59" rx="83.6" ry="9.09" style="fill:#ebebeb"></ellipse><ellipse cx="630.17" cy="365.92" rx="60.44" ry="8.08" style="fill:#ebebeb"></ellipse><path d="M161.08,444.13c0,2.95-13.12,5.34-29.31,5.34s-29.3-2.39-29.3-5.34,13.12-5.34,29.3-5.34S161.08,441.18,161.08,444.13Z" style="fill:#ebebeb"></path><path d="M375.64,457c0,2.95-13.12,5.34-29.3,5.34S317,460,317,457s13.12-5.34,29.31-5.34S375.64,454.06,375.64,457Z" style="fill:#ebebeb"></path><path d="M426.58,457c0,2.95-13.12,5.34-29.3,5.34S368,460,368,457s13.12-5.34,29.31-5.34S426.58,454.06,426.58,457Z" style="fill:#ebebeb"></path><ellipse cx="413.53" cy="350.59" rx="102.2" ry="9.09" style="fill:#ebebeb"></ellipse></g><g id="freepik--Cows--inject-23"><path d="M221.14,263.62s3,14.81,1.86,18.39c-.67,2.06-12.44,35.68-12.44,37.4s5.28,29.52,5.28,29.52l1.11-2.82,2.53,2.63a20.68,20.68,0,0,0-1-3.44c-.59-1.23-1.35-3.53-1.35-3.53s4.64-12.63,5.92-16.91c1-3.27,18.66-19.44,23.89-27.61,1.63-2.56,11.46-27.7,12.95-34.11C260.85,259,220.54,261.32,221.14,263.62Z" style="fill:#498C79"></path><path d="M221.14,263.62s3,14.81,1.86,18.39c-.67,2.06-12.44,35.68-12.44,37.4s5.28,29.52,5.28,29.52l1.11-2.82,2.53,2.63a20.68,20.68,0,0,0-1-3.44c-.59-1.23-1.35-3.53-1.35-3.53s4.64-12.63,5.92-16.91c1-3.27,18.66-19.44,23.89-27.61,1.63-2.56,11.46-27.7,12.95-34.11C260.85,259,220.54,261.32,221.14,263.62Z" style="opacity:0.5"></path><path d="M111.1,248.14c2.14,8.22,10.16,51.49,10.44,54.93s-3.87,19.57-3.87,21.28,11.93,24.58,11.93,24.58l1.11-2.82,2.54,2.63a11.65,11.65,0,0,0-1-3.44c-.67-1.05-2.39-3.53-2.39-3.53s.48-12.42,1.15-15.77,14.71-20.44,17.87-28.66,1.81-30,1.33-34.2S110.5,245.84,111.1,248.14Z" style="fill:#498C79"></path><path d="M111.1,248.14c2.14,8.22,10.16,51.49,10.44,54.93s-3.87,19.57-3.87,21.28,11.93,24.58,11.93,24.58l1.11-2.82,2.54,2.63a11.65,11.65,0,0,0-1-3.44c-.67-1.05-2.39-3.53-2.39-3.53s.48-12.42,1.15-15.77,14.71-20.44,17.87-28.66,1.81-30,1.33-34.2S110.5,245.84,111.1,248.14Z" style="opacity:0.5"></path><path d="M85,221.39c.47-6.11,14.33-25.22,19.49-27.23s71.94,6.59,80.82,6.31S240.4,192,245.56,190s25.1,26.4,25.1,26.4c-1.72.57-8.53,41.53-11.4,48s-39.55,35.11-43.85,35.4-41.56,3.15-58.76,2.86-40.7-4.15-46.72-7S83.14,245.46,85,221.39Z" style="fill:#498C79"></path><path d="M85,221.39c.47-6.11,14.33-25.22,19.49-27.23s71.94,6.59,80.82,6.31S240.4,192,245.56,190s25.1,26.4,25.1,26.4c-1.72.57-8.53,41.53-11.4,48s-39.55,35.11-43.85,35.4-41.56,3.15-58.76,2.86-40.7-4.15-46.72-7S83.14,245.46,85,221.39Z" style="opacity:0.30000000000000004"></path><path d="M244.41,207.11c-3.93,5-2.41,20.11-14.42,21.73S216.2,219.12,206.6,217c-9.2-2.09-14.6-7.18-18.68-16.67,13-1.28,52.88-8.42,57.65-10.27a54,54,0,0,0,8.4-5.09,17.56,17.56,0,0,1,1.23,5.34C255.69,200.1,248.35,202.08,244.41,207.11Z" style="opacity:0.1"></path><path d="M193.08,226.34c-4-11.94-30.44-2-37.43,0s-27.77-6.77-36.29,0S115,247.87,131,253.47c9.18,3.21,17.22,22.07,34.72,19.88s14.21-16.62,17.71-23.83S196.4,236.4,193.08,226.34Z" style="opacity:0.1"></path><path d="M164.09,198.76a8.75,8.75,0,0,1-1.38,2.59c-5,6.47-19.61.53-24,2.76s-18.48,7.57-22.27-2.37c-1.38-3.61-1.58-5.78-1.22-7.59C127.64,194.94,148.25,197.18,164.09,198.76Z" style="opacity:0.1"></path><path d="M269.59,219c-1.79,6.49-5,23.67-7.57,35.17-3.29-1.66-3.25-6.55-4.12-10.81-.91-4.42-5-7.75-4.62-14.32S261.25,219.26,269.59,219Z" style="opacity:0.1"></path><path d="M88.6,248.14c2.14,8.22,10.16,51.49,10.44,54.93s-3.87,19.57-3.87,21.28,11.93,24.58,11.93,24.58l1.11-2.82,2.54,2.63a11.65,11.65,0,0,0-1-3.44c-.67-1.05-2.39-3.53-2.39-3.53s.48-12.42,1.15-15.77,14.71-20.44,17.87-28.66,1.81-30,1.33-34.2S88,245.84,88.6,248.14Z" style="fill:#498C79"></path><path d="M88.6,248.14c2.14,8.22,10.16,51.49,10.44,54.93s-3.87,19.57-3.87,21.28,11.93,24.58,11.93,24.58l1.11-2.82,2.54,2.63a11.65,11.65,0,0,0-1-3.44c-.67-1.05-2.39-3.53-2.39-3.53s.48-12.42,1.15-15.77,14.71-20.44,17.87-28.66,1.81-30,1.33-34.2S88,245.84,88.6,248.14Z" style="opacity:0.30000000000000004"></path><path d="M125.4,299.49c1.84-4.62,3.77-9.1,4.61-14l1-4.83c.94-4,1.85-8.05,2.88-12a10.29,10.29,0,0,1,.75-2.42,16.44,16.44,0,0,1,3.48-3.58c-1.75,1.8-3.45,3.52-3.64,6.12l-.48,2.43c-.95,4.67-2.07,9.84-3.17,14.51-.9,4.89-3.12,9.47-5.46,13.81Z" style="opacity:0.1"></path><path d="M289.69,182.11c3.47,1,9.56,6.35,12.72,8.59s17.35-2,17.1-2.64-8.8-8.62-12.17-9.46-10.37,3.06-16.23,1.81Z" style="fill:#498C79"></path><path d="M289.69,182.11c3.47,1,9.56,6.35,12.72,8.59s17.35-2,17.1-2.64-8.8-8.62-12.17-9.46-10.37,3.06-16.23,1.81Z" style="opacity:0.5"></path><path d="M247.2,184.92c-3,2.26-11.39,3.94-15.27,5.15s-9.32,15.8-8.66,16,12.79-1.87,15.64-4.15,4-10.61,8.81-14.71Z" style="fill:#498C79"></path><path d="M247.2,184.92c-3,2.26-11.39,3.94-15.27,5.15s-9.32,15.8-8.66,16,12.79-1.87,15.64-4.15,4-10.61,8.81-14.71Z" style="opacity:0.30000000000000004"></path><path d="M226.56,203a58.51,58.51,0,0,1,4.41-7.88,7,7,0,0,1,2.16-2.29c3.63-1.72,7.56-2.49,10.81-4.92l1.56-1a46.73,46.73,0,0,0-3.27,6.52c-1.06,2.51-2,5.64-4.67,7a19.21,19.21,0,0,1-2.64,1c-1.79.54-3.59,1-5.41,1.36A54.57,54.57,0,0,0,237.3,200c2.37-1.4,3.1-4.36,4.13-6.78a36.4,36.4,0,0,1,2.36-5.11l.68.62c-3.24,2.4-7.39,3.26-11,4.81-2.93,2.28-4.79,6.4-6.87,9.5Z" style="opacity:0.1"></path><path d="M250.09,189.11s-20.39-7.46-22-9.74-5.82-26.36-4.68-27.47c.89-.87,9.4,15.28,11.49,17.38,3.07,3.1,18.36,6.5,18.36,6.5Z" style="fill:#498C79"></path><path d="M250.09,189.11s-20.39-7.46-22-9.74-5.82-26.36-4.68-27.47c.89-.87,9.4,15.28,11.49,17.38,3.07,3.1,18.36,6.5,18.36,6.5Z" style="fill:#fff;opacity:0.7000000000000001"></path><path d="M292.21,183.07s16.17-10.69,17.1-13-.39-24.11-1.6-24.83c-1-.57-5,15.21-6.4,17.47-2,3.32-14.6,9.44-14.6,9.44Z" style="fill:#498C79"></path><path d="M292.21,183.07s16.17-10.69,17.1-13-.39-24.11-1.6-24.83c-1-.57-5,15.21-6.4,17.47-2,3.32-14.6,9.44-14.6,9.44Z" style="fill:#fff;opacity:0.7000000000000001"></path><path d="M245.7,180s-5.06,35.74,1.35,43.14,25.68,9.49,26.67,10S287,243.35,291.34,243.6s17.25-4.35,19.69-6.24c1.08-.83,2.59-11.34,2.35-13.16-.16-1.25-6.45-5.71-6.82-7.19s-12.8-44.42-16.62-46.52S251.49,165.71,245.7,180Z" style="fill:#498C79"></path><path d="M245.7,180s-5.06,35.74,1.35,43.14,25.68,9.49,26.67,10S287,243.35,291.34,243.6s17.25-4.35,19.69-6.24c1.08-.83,2.59-11.34,2.35-13.16-.16-1.25-6.45-5.71-6.82-7.19s-12.8-44.42-16.62-46.52S251.49,165.71,245.7,180Z" style="opacity:0.30000000000000004"></path><path d="M274.91,214.84c0-.11-.26.15-.25.27.11,3-.33,6.53-3.34,7.54-.09,0-.08.19,0,.17C275,222.35,275.55,217.7,274.91,214.84Z" style="fill:#263238"></path><path d="M271.93,211.67c-5.35-.36-5.76,9.44-.8,9.77S276.43,212,271.93,211.67Z" style="fill:#263238"></path><path d="M311,237.37c-2.44,1.88-15.37,6.48-19.69,6.23a8.44,8.44,0,0,1-2.7-.81c-2.7-2.64-3.62-11-2-13.54s11.48-2.53,14.18-3.44,6.85-5,10-4.47h0c1.35,1.23,2.52,2.33,2.59,2.86C313.62,226,312.1,236.54,311,237.37Z" style="fill:#ffc4c0"></path><path d="M306.17,230.76c.14-2.24,1.05-4.07,2-4.1s1.67,1.77,1.53,4-1,4.07-2,4.09S306,233,306.17,230.76Z" style="opacity:0.1"></path><path d="M292.74,235.25c-.45-2.38.16-4.43,1.36-4.59s2.54,1.66,3,4.05-.17,4.43-1.37,4.58S293.19,237.64,292.74,235.25Z" style="opacity:0.1"></path><path d="M244.54,190.44a70,70,0,0,1-.73,13.49,32.7,32.7,0,0,1,.73-13.49Z" style="fill:#263238"></path><path d="M247.61,223.73c5.6,4.19,12.45,6.06,19.09,8-6.88-.52-14.37-2.7-19.09-8Z" style="fill:#263238"></path><path d="M248.31,226.53c2.31.39,4.32,1.19,6.59,1.72a8.45,8.45,0,0,1-6.59-1.72Z" style="fill:#263238"></path><path d="M243.81,197.19a25.69,25.69,0,0,1-1.43,4.51,4.57,4.57,0,0,1,1.43-4.51Z" style="fill:#263238"></path><path d="M262.78,176.55c-.42,4.43,0,9.07,2.63,12.81,1.34,1.9,3.62,4.17,6.12,3.8,3.52-.52,2.58-5.95,2.47-8.46,0-.33.47-.53.6-.17,1.22,3.38,3.69,8.11,7.12,9.73,1.4.66,3.51.74,4.58-.65.9-1.16.6-2.89.3-4.2a16.5,16.5,0,0,0-2.53-5.64.29.29,0,0,1,.45-.36,16.57,16.57,0,0,0,2.2,1.9c1,.72,2.56,2,2.06-.33-.32-1.45-2.2-2.94-3.36-3.72-.22-.14,0-.44.24-.31a8.76,8.76,0,0,1,3.11,3c.33.54,1.14,1.78.87,2.49-.5,1.34-2.49,0-3.95-1.18,1.93,3.48,3.72,9.19-1,10.15s-8-4.4-9.83-8.5c.22,2.26.23,4.88-1.25,6.26-1.83,1.69-4.5.71-6.19-.63-4.74-3.77-6-8.69-4.88-15.87C262.61,176.42,262.81,176.33,262.78,176.55Z" style="opacity:0.2"></path><path d="M99.35,198.38c-5.27,2.18-12.25,6.19-15.31,9.25s-16,26.66-18,32c-1.79,4.68-2,22.32-2,22.32l2.83.62s1.42-18.72,2.83-21.28c3.16-5.74,14.81-25.23,17.68-25.9Z" style="fill:#498C79"></path><g style="opacity:0.30000000000000004"><path d="M99.35,198.38c-5.27,2.18-12.25,6.19-15.31,9.25s-16,26.66-18,32c-1.79,4.68-2,22.32-2,22.32l2.83.62s1.42-18.72,2.83-21.28c3.16-5.74,14.81-25.23,17.68-25.9Z"></path></g><path d="M64.65,260.86c-3.67,1.4-5.09,6.15-5.1,7.5s2.93,6,3.54,6.74.72-2.74.72-2.74,5.23,9.72,6.42,9.36.09-11.05.09-11.05,1.23,1.95,1.72,1.8,0-5-1-7.09S66.27,261,66.27,261Z" style="fill:#263238"></path><path d="M209.29,263.62s1.37,14.95.2,18.53c-.68,2.06-16.41,35.54-16.41,37.26S205,348.93,205,348.93l1.11-2.82,2.53,2.63a11.52,11.52,0,0,0-1-3.44c-.67-1.05-2.39-3.53-2.39-3.53s.48-12.42,1.15-15.77,22-21,27.92-28.75,23.07-29,25.56-34.11C261.75,259.33,208.7,261.32,209.29,263.62Z" style="fill:#498C79"></path><path d="M209.29,263.62s1.37,14.95.2,18.53c-.68,2.06-16.41,35.54-16.41,37.26S205,348.93,205,348.93l1.11-2.82,2.53,2.63a11.52,11.52,0,0,0-1-3.44c-.67-1.05-2.39-3.53-2.39-3.53s.48-12.42,1.15-15.77,22-21,27.92-28.75,23.07-29,25.56-34.11C261.75,259.33,208.7,261.32,209.29,263.62Z" style="opacity:0.30000000000000004"></path><path d="M201.09,300.78c2-5.75,4.88-11.21,7-16.9.21-5.36-1.07-10.69-1.69-16,1.35,5.27,2.78,10.67,2.62,16.14a3.87,3.87,0,0,1-.31,1.17c-2.45,5.25-4.88,10.51-7.62,15.61Z" style="opacity:0.1"></path><path d="M379.37,263.62s-3,14.81-1.86,18.39c.67,2.06,12.44,35.68,12.44,37.4s-5.28,29.52-5.28,29.52l-1.11-2.82L381,348.74a19.7,19.7,0,0,1,1-3.44c.59-1.23,1.35-3.53,1.35-3.53s-4.64-12.63-5.92-16.91c-1-3.27-18.66-19.44-23.89-27.61-1.63-2.56-11.46-27.7-12.95-34.11C339.66,259,380,261.32,379.37,263.62Z" style="fill:#498C79"></path><path d="M379.37,263.62s-3,14.81-1.86,18.39c.67,2.06,12.44,35.68,12.44,37.4s-5.28,29.52-5.28,29.52l-1.11-2.82L381,348.74a19.7,19.7,0,0,1,1-3.44c.59-1.23,1.35-3.53,1.35-3.53s-4.64-12.63-5.92-16.91c-1-3.27-18.66-19.44-23.89-27.61-1.63-2.56-11.46-27.7-12.95-34.11C339.66,259,380,261.32,379.37,263.62Z" style="fill:#fff;opacity:0.30000000000000004"></path><path d="M482,248.14c-2.14,8.22-10.16,51.49-10.45,54.93s3.87,19.57,3.87,21.28-11.93,24.58-11.93,24.58l-1.11-2.82-2.53,2.63a11.52,11.52,0,0,1,1-3.44c.67-1.05,2.39-3.53,2.39-3.53s-.48-12.42-1.15-15.77-14.71-20.44-17.86-28.66-1.82-30-1.34-34.2S482.61,245.84,482,248.14Z" style="fill:#498C79"></path><path d="M482,248.14c-2.14,8.22-10.16,51.49-10.45,54.93s3.87,19.57,3.87,21.28-11.93,24.58-11.93,24.58l-1.11-2.82-2.53,2.63a11.52,11.52,0,0,1,1-3.44c.67-1.05,2.39-3.53,2.39-3.53s-.48-12.42-1.15-15.77-14.71-20.44-17.86-28.66-1.82-30-1.34-34.2S482.61,245.84,482,248.14Z" style="fill:#fff;opacity:0.30000000000000004"></path><path d="M508.1,221.39c-.47-6.11-14.33-25.22-19.49-27.23s-71.94,6.59-80.82,6.31-51.38,10.32-60.11,15.19c-6.87,3.84-36.34,65.4-36.34,65.4L338.17,308s22.59-8.46,26.89-8.17,54.19,3.15,71.39,2.86,40.7-4.15,46.72-7S510,245.46,508.1,221.39Z" style="fill:#498C79"></path><path d="M508.1,221.39c-.47-6.11-14.33-25.22-19.49-27.23s-71.94,6.59-80.82,6.31-51.38,10.32-60.11,15.19c-6.87,3.84-36.34,65.4-36.34,65.4L338.17,308s22.59-8.46,26.89-8.17,54.19,3.15,71.39,2.86,40.7-4.15,46.72-7S510,245.46,508.1,221.39Z" style="fill:#fff;opacity:0.6000000000000001"></path><path d="M405,200.6c-4.06,9.29-9.45,14.28-18.54,16.35-9.6,2.17-11.36,13.53-23.39,11.89-8.28-1.11-10.13-8.63-11.76-14.83C363.57,209.2,393.73,201.7,405,200.6Z" style="fill:#263238"></path><path d="M400,226.34c3.94-11.94,30.43-2,37.42,0s27.77-6.77,36.3,0,4.37,21.53-11.64,27.13c-9.18,3.21-17.22,22.07-34.71,19.88s-14.21-16.62-17.71-23.83S396.7,236.4,400,226.34Z" style="fill:#263238"></path><path d="M429,198.76a9,9,0,0,0,1.38,2.59c5,6.47,19.61.53,24.05,2.76s18.48,7.57,22.27-2.37c1.38-3.61,1.57-5.78,1.22-7.59C465.46,194.94,444.85,197.18,429,198.76Z" style="fill:#263238"></path><path d="M342.76,246c-3.95,5.26-9.22,5.17-12.77,8-2.74,2.16-5.3,5-8.05,5.6,5.06-10,11.11-21.65,16.21-30.45C343.51,234.49,346.39,241.14,342.76,246Z" style="fill:#263238"></path><path d="M504.51,248.14c-2.14,8.22-10.16,51.49-10.45,54.93s3.87,19.57,3.87,21.28S486,348.93,486,348.93l-1.11-2.82-2.53,2.63a11.52,11.52,0,0,1,1-3.44c.67-1.05,2.39-3.53,2.39-3.53s-.48-12.42-1.15-15.77-14.71-20.44-17.86-28.66-1.82-30-1.34-34.2S505.11,245.84,504.51,248.14Z" style="fill:#498C79"></path><path d="M504.51,248.14c-2.14,8.22-10.16,51.49-10.45,54.93s3.87,19.57,3.87,21.28S486,348.93,486,348.93l-1.11-2.82-2.53,2.63a11.52,11.52,0,0,1,1-3.44c.67-1.05,2.39-3.53,2.39-3.53s-.48-12.42-1.15-15.77-14.71-20.44-17.86-28.66-1.82-30-1.34-34.2S505.11,245.84,504.51,248.14Z" style="fill:#fff;opacity:0.6000000000000001"></path><path d="M467.7,299.49c-1.83-4.62-3.77-9.1-4.6-14l-1-4.83c-.93-4-1.85-8.05-2.87-12a10.8,10.8,0,0,0-.76-2.42,16.39,16.39,0,0,0-3.47-3.58c1.74,1.8,3.44,3.52,3.63,6.12l.48,2.43c.95,4.67,2.07,9.84,3.18,14.51.9,4.89,3.12,9.47,5.45,13.81Z" style="opacity:0.1"></path><path d="M493.75,198.38c5.28,2.18,12.25,6.19,15.31,9.25s13.38,31.91,16,36.21,18.24,14.33,18.24,14.33l-1.14,1.15s-14.43-7.93-18.54-13.86-15-29.42-17.86-30.09Z" style="fill:#498C79"></path><path d="M493.75,198.38c5.28,2.18,12.25,6.19,15.31,9.25s13.38,31.91,16,36.21,18.24,14.33,18.24,14.33l-1.14,1.15s-14.43-7.93-18.54-13.86-15-29.42-17.86-30.09Z" style="fill:#fff;opacity:0.6000000000000001"></path><path d="M543.26,258.17c3.73-1.24,7.84,1.53,8.7,2.58s1.53,6.5,1.53,7.45-2.3-1.66-2.3-1.66,2.1,10.83,1,11.31-7.07-8.5-7.07-8.5.28,2.29-.19,2.48-3.16-3.91-3.73-6.11,1-6.4,1-6.4Z" style="fill:#263238"></path><path d="M391.21,263.62s-1.36,14.95-.19,18.53c.68,2.06,16.41,35.54,16.41,37.26s-11.93,29.52-11.93,29.52l-1.11-2.82-2.53,2.63a11.52,11.52,0,0,1,1-3.44c.67-1.05,2.39-3.53,2.39-3.53s-.48-12.42-1.15-15.77-22-21-27.92-28.75-23.07-29-25.56-34.11C338.76,259.33,391.81,261.32,391.21,263.62Z" style="fill:#498C79"></path><path d="M391.21,263.62s-1.36,14.95-.19,18.53c.68,2.06,16.41,35.54,16.41,37.26s-11.93,29.52-11.93,29.52l-1.11-2.82-2.53,2.63a11.52,11.52,0,0,1,1-3.44c.67-1.05,2.39-3.53,2.39-3.53s-.48-12.42-1.15-15.77-22-21-27.92-28.75-23.07-29-25.56-34.11C338.76,259.33,391.81,261.32,391.21,263.62Z" style="fill:#fff;opacity:0.6000000000000001"></path><path d="M399.42,300.78c-2-5.75-4.88-11.21-7-16.9-.21-5.36,1.07-10.69,1.69-16-1.35,5.27-2.78,10.67-2.62,16.14a3.87,3.87,0,0,0,.31,1.17c2.45,5.25,4.88,10.51,7.62,15.61Z" style="opacity:0.1"></path><path d="M296.91,286.79c-3.09,1.86-7.59,8.61-10.06,11.6s-17.29,2.5-17.2,1.86,6.27-10.6,9.31-12.28,10.81.27,16.14-2.45Z" style="fill:#498C79"></path><path d="M296.91,286.79c-3.09,1.86-7.59,8.61-10.06,11.6s-17.29,2.5-17.2,1.86,6.27-10.6,9.31-12.28,10.81.27,16.14-2.45Z" style="fill:#fff;opacity:0.30000000000000004"></path><path d="M338.68,278.5c3.52,1.4,12,.87,16.08,1s13.09,12.85,12.51,13.18-12.85,1.51-16.19,0-6.65-9.2-12.31-11.92Z" style="fill:#498C79"></path><path d="M338.68,278.5c3.52,1.4,12,.87,16.08,1s13.09,12.85,12.51,13.18-12.85,1.51-16.19,0-6.65-9.2-12.31-11.92Z" style="fill:#fff;opacity:0.6000000000000001"></path><path d="M338.68,278.5c3.95,1.2,8.63.72,12.73.76l2.14,0a6.55,6.55,0,0,1,2.21.22c4,1.89,6.59,5.6,9.28,8.92a25.36,25.36,0,0,1,2.53,3.88.88.88,0,0,1,.09.43c0,.28-.24.38-.49.44a59.89,59.89,0,0,1-7.8.65c-2.88,0-5.82.26-8.59-.87-2.31-1.3-4.13-4.4-5.79-6.36a20.11,20.11,0,0,0-6.22-5.72,20.27,20.27,0,0,1,6.5,5.48c1.62,1.8,3.63,5,5.77,6.09,2.61,1,5.56.7,8.31.69a56.5,56.5,0,0,0,7.69-.7h0a.3.3,0,0,0-.16.24,45.22,45.22,0,0,0-8-10.22,12.22,12.22,0,0,0-3.36-2.41c-5.39-.67-11.42.29-16.87-1.5Z" style="fill:#263238"></path><path d="M363.3,290.65a60,60,0,0,0-6.29-6.47,7.14,7.14,0,0,0-2.68-1.65c-4-.72-7.95-.46-11.72-2l-1.75-.51a46.23,46.23,0,0,1,4.84,5.45c1.68,2.15,3.44,4.92,6.32,5.54a20.89,20.89,0,0,0,2.81.28c1.87.05,3.73,0,5.58-.1a53.18,53.18,0,0,1-8.27-.74c-2.65-.74-4.12-3.41-5.74-5.48a37.32,37.32,0,0,0-3.61-4.33l-.49.78c3.75,1.48,8,1.24,11.91,1.79,3.42,1.44,6.28,4.95,9.09,7.4Z" style="opacity:0.1"></path><path d="M337,283.31s17.76-12.49,18.72-15.11-1.2-27-2.58-27.74c-1.09-.61-5.13,17.19-6.6,19.76-2.17,3.78-16.06,11-16.06,11Z" style="fill:#498C79"></path><path d="M337,283.31s17.76-12.49,18.72-15.11-1.2-27-2.58-27.74c-1.09-.61-5.13,17.19-6.6,19.76-2.17,3.78-16.06,11-16.06,11Z" style="opacity:0.30000000000000004"></path><path d="M294.72,288.37s-18.38-6.14-19.87-8.13S269,256.85,270,255.84c.77-.8,8.78,13.4,10.69,15.22,2.82,2.69,16.56,5.34,16.56,5.34Z" style="fill:#498C79"></path><path d="M294.72,288.37s-18.38-6.14-19.87-8.13S269,256.85,270,255.84c.77-.8,8.78,13.4,10.69,15.22,2.82,2.69,16.56,5.34,16.56,5.34Z" style="opacity:0.30000000000000004"></path><path d="M338.86,273.37s14.13,33.21,9.86,42-22.35,15.81-23.18,16.54-10.21,13.33-14.31,14.68-17.78.27-20.63-.92c-1.25-.53-5.44-10.29-5.68-12.12-.16-1.24,4.76-7.18,4.73-8.7s.86-46.22,4-49.24S329.56,261.06,338.86,273.37Z" style="fill:#498C79"></path><path d="M338.86,273.37s14.13,33.21,9.86,42-22.35,15.81-23.18,16.54-10.21,13.33-14.31,14.68-17.78.27-20.63-.92c-1.25-.53-5.44-10.29-5.68-12.12-.16-1.24,4.76-7.18,4.73-8.7s.86-46.22,4-49.24S329.56,261.06,338.86,273.37Z" style="fill:#fff;opacity:0.6000000000000001"></path><path d="M319.66,314.58c0-.12.29.07.31.2.68,3,2,6.22,5.18,6.42.1,0,.13.16,0,.17C321.49,321.86,319.78,317.51,319.66,314.58Z" style="fill:#263238"></path><path d="M321.71,310.75c5.09-1.74,8,7.62,3.31,9.23S317.46,312.21,321.71,310.75Z" style="fill:#263238"></path><path d="M290.6,345.69c2.84,1.18,16.52,2.28,20.63.92a8.26,8.26,0,0,0,2.4-1.48c1.93-3.25.64-11.61-1.53-13.61s-11.75.53-14.59.35-7.92-3.08-10.81-1.73h0c-1,1.54-1.83,2.91-1.76,3.44C285.16,335.41,289.35,345.17,290.6,345.69Z" style="fill:#ffc4c0"></path><path d="M293.58,338.05c-.71-2.13-2.06-3.66-3-3.43s-1.15,2.14-.44,4.26,2.06,3.66,3,3.43S294.29,340.17,293.58,338.05Z" style="opacity:0.1"></path><path d="M307.72,338.91c-.18-2.42-1.3-4.24-2.5-4.08s-2,2.26-1.84,4.68,1.31,4.24,2.51,4.08S307.91,341.33,307.72,338.91Z" style="opacity:0.1"></path><path d="M317.58,268.16a19.64,19.64,0,0,1,13.84.67,103,103,0,0,0-13.84-.67Z" style="fill:#263238"></path><path d="M345.29,290.44c3.28,6.17,5.28,13.24,4.2,20.25a72,72,0,0,0-1.42-10.25c-.7-3.39-2-6.62-2.78-10Z" style="fill:#263238"></path><path d="M347.9,291.66a8.41,8.41,0,0,1,.43,6.8c-.09-2.33-.48-4.46-.43-6.8Z" style="fill:#263238"></path><path d="M324.47,267.56a4.59,4.59,0,0,1,4.7-.54,24.9,24.9,0,0,1-4.7.54Z" style="fill:#263238"></path><path d="M321.46,274.45c1.56,4.18,2.38,8.76.78,13.06-.8,2.18-2.42,5-4.93,5.25-3.53.41-4-5.08-4.57-7.53-.08-.32-.59-.39-.62,0-.31,3.58-1.47,8.79-4.37,11.25-1.17,1-3.19,1.61-4.58.55-1.17-.89-1.34-2.63-1.39-4a16.71,16.71,0,0,1,1-6.11.29.29,0,0,0-.53-.23,17.17,17.17,0,0,1-1.63,2.4c-.81,1-2,2.58-2.07.22-.07-1.49,1.35-3.41,2.28-4.46.17-.2-.14-.42-.31-.24a8.67,8.67,0,0,0-2.24,3.67c-.18.61-.64,2-.2,2.63.83,1.16,2.41-.62,3.52-2.16-1,3.86-1.22,9.84,3.55,9.55s6.57-6.31,7.3-10.76c.37,2.24,1,4.79,2.83,5.73,2.21,1.16,4.53-.48,5.81-2.21,3.61-4.87,3.58-9.95.61-16.6C321.6,274.28,321.38,274.25,321.46,274.45Z" style="opacity:0.2"></path></g><g id="freepik--Pigs--inject-23"><ellipse cx="497.75" cy="403.7" rx="44.31" ry="7.11" style="fill:#498C79"></ellipse><ellipse cx="550.8" cy="402.27" rx="33.57" ry="8.53" style="fill:#498C79"></ellipse><path d="M553.18,410.81c0,3.92-13.43,7.1-30,7.1s-30-3.18-30-7.1,13.42-7.11,30-7.11S553.18,406.88,553.18,410.81Z" style="fill:#498C79"></path><path d="M491.46,414.64c0,.8-1.36,1.45-3,1.45s-3-.65-3-1.45,1.36-1.45,3-1.45S491.46,413.84,491.46,414.64Z" style="fill:#498C79"></path><path d="M466.25,395.91c0,.8-1.36,1.45-3,1.45s-3-.65-3-1.45,1.36-1.45,3-1.45S466.25,395.11,466.25,395.91Z" style="fill:#498C79"></path><path d="M574.77,392.81c0,.81-1.36,1.45-3,1.45s-3-.64-3-1.45,1.36-1.45,3-1.45S574.77,392,574.77,392.81Z" style="fill:#498C79"></path><path d="M558.71,412.47c0,1.3-2.2,2.35-4.91,2.35s-4.92-1.05-4.92-2.35,2.2-2.36,4.92-2.36S558.71,411.17,558.71,412.47Z" style="fill:#498C79"></path><path d="M476.64,398.27c0,1.3-2.2,2.35-4.92,2.35s-4.91-1.05-4.91-2.35,2.2-2.36,4.91-2.36S476.64,397,476.64,398.27Z" style="fill:#498C79"></path><path d="M587.92,401c0,.8-1.36,1.45-3,1.45s-3-.65-3-1.45,1.35-1.45,3-1.45S587.92,400.16,587.92,401Z" style="fill:#498C79"></path><path d="M484.85,412.47c0,.4-.61.72-1.37.72s-1.37-.32-1.37-.72.62-.73,1.37-.73S484.85,412.07,484.85,412.47Z" style="fill:#498C79"></path><path d="M581.16,395.13c0,.4-.61.72-1.37.72s-1.37-.32-1.37-.72.62-.73,1.37-.73S581.16,394.73,581.16,395.13Z" style="fill:#498C79"></path><g style="opacity:0.5"><ellipse cx="497.75" cy="403.7" rx="44.31" ry="7.11"></ellipse><ellipse cx="550.8" cy="402.27" rx="33.57" ry="8.53"></ellipse><path d="M553.18,410.81c0,3.92-13.43,7.1-30,7.1s-30-3.18-30-7.1,13.42-7.11,30-7.11S553.18,406.88,553.18,410.81Z"></path><path d="M491.46,414.64c0,.8-1.36,1.45-3,1.45s-3-.65-3-1.45,1.36-1.45,3-1.45S491.46,413.84,491.46,414.64Z"></path><path d="M466.25,395.91c0,.8-1.36,1.45-3,1.45s-3-.65-3-1.45,1.36-1.45,3-1.45S466.25,395.11,466.25,395.91Z"></path><path d="M574.77,392.81c0,.81-1.36,1.45-3,1.45s-3-.64-3-1.45,1.36-1.45,3-1.45S574.77,392,574.77,392.81Z"></path><path d="M558.71,412.47c0,1.3-2.2,2.35-4.91,2.35s-4.92-1.05-4.92-2.35,2.2-2.36,4.92-2.36S558.71,411.17,558.71,412.47Z"></path><path d="M476.64,398.27c0,1.3-2.2,2.35-4.92,2.35s-4.91-1.05-4.91-2.35,2.2-2.36,4.91-2.36S476.64,397,476.64,398.27Z"></path><path d="M587.92,401c0,.8-1.36,1.45-3,1.45s-3-.65-3-1.45,1.35-1.45,3-1.45S587.92,400.16,587.92,401Z"></path><path d="M484.85,412.47c0,.4-.61.72-1.37.72s-1.37-.32-1.37-.72.62-.73,1.37-.73S484.85,412.07,484.85,412.47Z"></path><path d="M581.16,395.13c0,.4-.61.72-1.37.72s-1.37-.32-1.37-.72.62-.73,1.37-.73S581.16,394.73,581.16,395.13Z"></path></g><path d="M673.11,292.2c.64-.82,1.26-1.52,1.94-2.24a27.48,27.48,0,0,1,2.13-2,17.29,17.29,0,0,1,2.49-1.81A7.46,7.46,0,0,1,683,285a4.27,4.27,0,0,1,2,.44,4.36,4.36,0,0,1,.87.57,5.55,5.55,0,0,1,.66.71,5.75,5.75,0,0,1,1.15,3.32,9.1,9.1,0,0,1-.44,3.15,8.14,8.14,0,0,1-1.48,2.8,3.56,3.56,0,0,1-1.52,1.12,2.09,2.09,0,0,1-1.22.06,2.19,2.19,0,0,1-1-.59,2,2,0,0,1-.54-1.05,2.4,2.4,0,0,1,.06-1.05,4.41,4.41,0,0,1,.81-1.47,8.72,8.72,0,0,1,2.28-1.94,7.16,7.16,0,0,1,2.79-1,3.26,3.26,0,0,1,1.57.16,2.43,2.43,0,0,1,1.23,1,4.75,4.75,0,0,1,.53,2.85,16,16,0,0,1-1.61,5.32,16.06,16.06,0,0,0,1.17-5.33,4.2,4.2,0,0,0-.65-2.46,2,2,0,0,0-2.09-.63,6,6,0,0,0-2.27,1.1,7.5,7.5,0,0,0-1.76,1.8,2.75,2.75,0,0,0-.43,1,.84.84,0,0,0,0,.33.31.31,0,0,0,.12.14.35.35,0,0,0,.19.08.26.26,0,0,0,.14-.05,1.77,1.77,0,0,0,.6-.6,7,7,0,0,0,1-4.5,3.13,3.13,0,0,0-.78-1.76,1.58,1.58,0,0,0-.31-.27,2.25,2.25,0,0,0-.3-.16,1.38,1.38,0,0,0-.65,0,4.48,4.48,0,0,0-1.79.83,13,13,0,0,0-1.85,1.6,24.57,24.57,0,0,0-1.7,1.94c-.54.67-1.08,1.41-1.52,2.08Z" style="fill:#ffc4c0"></path><path d="M632.56,326.25c3.28-12.43,24-24,38.18-14.22,12.16,8.41,6.29,22.56-3.22,30.66-2.75,2.34-2.81,5,.2,4.58,0,0-8.74,7.88-12.25,15.84a8.68,8.68,0,0,1-2.23-4.27l-5.15,4.27a48.18,48.18,0,0,1,6.7-13S626.51,349.24,632.56,326.25Z" style="fill:#ffc4c0"></path><path d="M667.72,347.27a70,70,0,0,0-5.81,6.09,43,43,0,0,0-6.45,9.74,8.64,8.64,0,0,1-2.22-4.26l-5.15,4.26a47,47,0,0,1,4.56-9.74c.63-1.06,1.34-2.15,2.14-3.24,0,0-28.29-.88-22.23-23.87,3.28-12.43,24-24.05,38.17-14.22,12.17,8.42,6.3,22.56-3.21,30.66C664.76,345,664.71,347.68,667.72,347.27Z" style="fill:#ffc4c0"></path><path d="M667.72,347.27a70,70,0,0,0-5.81,6.09,43,43,0,0,0-6.45,9.74,8.64,8.64,0,0,1-2.22-4.26l-5.15,4.26a47,47,0,0,1,4.56-9.74c.63-1.06,1.34-2.15,2.14-3.24,0,0-28.29-.88-22.23-23.87,3.28-12.43,24-24.05,38.17-14.22,12.17,8.42,6.3,22.56-3.21,30.66C664.76,345,664.71,347.68,667.72,347.27Z" style="opacity:0.1"></path><path d="M657.57,350c-10.79,1.24-25.29-3.62-26.21-16.14-1.24-9.12,5.14-17.49,13-21.38-7.38,4.32-13.43,12.39-12.19,21.29,1,12.16,14.93,16.7,25.44,16.23Z" style="fill:#263238"></path><path d="M594.3,344.83c-.62,4.17-.48,10.09-3.84,16.85l4.77-4.27-.24,4.27a56.51,56.51,0,0,0,13-16.49C611.81,337.59,596.22,332,594.3,344.83Z" style="fill:#ffc4c0"></path><path d="M594.3,344.83c-.62,4.17-.48,10.09-3.84,16.85l4.77-4.27-.24,4.27a56.51,56.51,0,0,0,13-16.49C611.81,337.59,596.22,332,594.3,344.83Z" style="opacity:0.1"></path><path d="M594,347.27a26.72,26.72,0,0,1,.31-7.47,19.17,19.17,0,0,1-.31,7.47Z" style="fill:#263238"></path><path d="M606.06,348.59c1-2.57,2.47-5,3.63-7.46a15.59,15.59,0,0,1-3.63,7.46Z" style="fill:#263238"></path><path d="M610.86,341.79a5.07,5.07,0,0,1-2.49,2.61,19.22,19.22,0,0,1,2.49-2.61Z" style="fill:#263238"></path><path d="M593.19,340.84a3,3,0,0,1,1,2.7,21.4,21.4,0,0,1-1-2.7Z" style="fill:#263238"></path><path d="M591.37,287.9s-4.19-4.79-5.91-4.87-11,3.89-13.9,4.11,2.4,19.62,4.16,19.9,9.74-13,10.83-17.88l2.57.25Z" style="fill:#ffc4c0"></path><path d="M591.37,287.9s-4.19-4.79-5.91-4.87-11,3.89-13.9,4.11,2.4,19.62,4.16,19.9,9.74-13,10.83-17.88l2.57.25Z" style="opacity:0.1"></path><path d="M573,321.36a.88.88,0,0,1,.94-.1,1.55,1.55,0,0,1,1.4-1s-4.27-26.6,15.39-36.31,64-15.59,87.59,5.49c15.19,13.57,18,52.45.59,59.51-18,7.31-40.61,1.29-40.61,1.29s-36.38,9.63-65.3-9.84c0,0-.14.28-2-.14s-6.88-4.27-7.43-6.88,2.45-11,3.76-12.71S571,319.22,573,321.36Z" style="fill:#ffc4c0"></path><path d="M573.93,321.26a5.62,5.62,0,0,1,2.57,4.17,48.09,48.09,0,0,1-2.57-4.17Z" style="fill:#263238"></path><path d="M575.33,320.3c2.37.25,4.21,2.53,4.69,4.75a14,14,0,0,0-4.69-4.75Z" style="fill:#263238"></path><path d="M645.29,331c3.28-12.43,24-24,38.18-14.21,12.16,8.41,6.29,22.56-3.22,30.65-2.75,2.34-2.81,5,.2,4.58,0,0-8.74,7.88-12.25,15.84a8.68,8.68,0,0,1-2.23-4.27l-5.14,4.27a48.47,48.47,0,0,1,6.69-13S639.24,354,645.29,331Z" style="fill:#ffc4c0"></path><path d="M680.45,352.07a68,68,0,0,0-5.8,6.08,42.88,42.88,0,0,0-6.45,9.75,8.68,8.68,0,0,1-2.23-4.27l-5.14,4.27a46.8,46.8,0,0,1,4.55-9.75c.63-1.06,1.34-2.14,2.14-3.23,0,0-28.28-.88-22.22-23.87,3.27-12.44,24-24.05,38.17-14.22,12.16,8.41,6.29,22.56-3.22,30.65C677.5,349.83,677.44,352.47,680.45,352.07Z" style="fill:#ffc4c0"></path><path d="M670.31,354.75c-10.8,1.24-25.3-3.62-26.22-16.14-1.24-9.11,5.14-17.49,13-21.38-7.38,4.33-13.43,12.4-12.18,21.29,1,12.17,14.92,16.71,25.44,16.23Z" style="fill:#263238"></path><path d="M603.33,349.44c-.63,4.17-.49,10.09-3.84,16.85l4.77-4.27-.24,4.27a56.51,56.51,0,0,0,13-16.49C620.83,342.2,605.25,336.57,603.33,349.44Z" style="fill:#ffc4c0"></path><path d="M603,351.88a26.65,26.65,0,0,1,.3-7.46,19.13,19.13,0,0,1-.3,7.46Z" style="fill:#263238"></path><path d="M615.09,353.2c1-2.56,2.46-5,3.62-7.45a15.54,15.54,0,0,1-3.62,7.45Z" style="fill:#263238"></path><path d="M619.88,346.4A5.07,5.07,0,0,1,617.4,349a18.63,18.63,0,0,1,2.48-2.62Z" style="fill:#263238"></path><path d="M602.21,345.46a3,3,0,0,1,1,2.69,23,23,0,0,1-1-2.69Z" style="fill:#263238"></path><path d="M585.43,319.62c0-.1.21.13.2.23-.24,2.52,0,5.43,2.41,6.41.08,0,.06.16,0,.14C585,325.84,584.76,322,585.43,319.62Z" style="fill:#263238"></path><path d="M588.05,317.13c4.46-.05,4.33,8.09.2,8.14S584.31,317.17,588.05,317.13Z" style="fill:#263238"></path><path d="M573,340.44l-.61.08a8.17,8.17,0,0,1-1.43-.22c-1.9-.43-6.88-4.27-7.43-6.88s2.45-11,3.76-12.71,3.74-1.49,5.71.65c3.77,5.8,8.55,9.23,8.89,11.93S576.82,340,573,340.44Z" style="fill:#ffc4c0"></path><path d="M573,340.44l-.61.08a8.17,8.17,0,0,1-1.43-.22c-1.9-.43-6.88-4.27-7.43-6.88s2.45-11,3.76-12.71,3.74-1.49,5.71.65c3.77,5.8,8.55,9.23,8.89,11.93S576.82,340,573,340.44Z" style="opacity:0.1"></path><path d="M567.94,329.61c-.18,2.23-1,4-1.8,3.93s-1.35-1.93-1.17-4.17,1-4,1.8-3.93S568.11,327.37,567.94,329.61Z" style="opacity:0.1"></path><path d="M574.42,329c.71,2.34.5,4.48-.46,4.77s-2.32-1.37-3-3.71-.5-4.47.46-4.76S573.71,326.7,574.42,329Z" style="opacity:0.1"></path><path d="M596.31,292.15s5.31-4.71,7.22-4.57,11.57,5.83,14.82,6.49S613,315.44,611,315.51s-9-15.69-9.51-21.29l-2.88-.08Z" style="fill:#ffc4c0"></path><path d="M598.59,294.14a9.94,9.94,0,0,1,2.88.08,10.3,10.3,0,0,1-2.88-.08Z" style="fill:#263238"></path><path d="M601,291.92c1.72,8.31,4.41,17,10.22,23.33,0,0-.15-.08-.18-.06s0,0,0,0c2.41-2.63,3.83-6.13,5.26-9.39a29.63,29.63,0,0,0,2.37-8.85,7.23,7.23,0,0,0-.09-2.1,1.77,1.77,0,0,0-.77-.5,40.72,40.72,0,0,1-5.33-2.41l-4.14-2.13a24.53,24.53,0,0,0-4.73-2c-2.86.41-5.09,2.68-7.3,4.38,2.16-1.87,4.37-4.27,7.31-4.75a22.16,22.16,0,0,1,4.94,1.94l4.2,2a48.52,48.52,0,0,0,5.32,2.3,2.3,2.3,0,0,1,1.12.79,6.06,6.06,0,0,1,.21,2.52c-.6,6.31-3.34,12.15-6.74,17.41a5.48,5.48,0,0,1-1.27,1.41.62.62,0,0,1-.54.06,25,25,0,0,1-4.39-6.15,55.31,55.31,0,0,1-5.46-17.8Z" style="fill:#263238"></path><path d="M490.37,395.94a21.86,21.86,0,0,1-1.51,1.75,23,23,0,0,1-1.67,1.6,12.48,12.48,0,0,1-1.95,1.41,5.68,5.68,0,0,1-2.61.85,3.26,3.26,0,0,1-1.6-.34,2.87,2.87,0,0,1-.68-.45,3.88,3.88,0,0,1-.52-.55,4.53,4.53,0,0,1-.89-2.6,6.86,6.86,0,0,1,.34-2.45,6.48,6.48,0,0,1,1.16-2.2,2.8,2.8,0,0,1,1.18-.87,1.64,1.64,0,0,1,1,0,1.67,1.67,0,0,1,.77.47,1.59,1.59,0,0,1,.43.82,1.84,1.84,0,0,1-.06.82,3.26,3.26,0,0,1-.63,1.15,6.72,6.72,0,0,1-1.78,1.51,5.51,5.51,0,0,1-2.18.8,2.49,2.49,0,0,1-1.23-.13,1.87,1.87,0,0,1-1-.79,3.76,3.76,0,0,1-.41-2.23,12.41,12.41,0,0,1,1.26-4.16,12.16,12.16,0,0,0-.91,4.17,3.18,3.18,0,0,0,.5,1.92,1.53,1.53,0,0,0,1.64.49,4.7,4.7,0,0,0,1.77-.86,5.55,5.55,0,0,0,1.37-1.41,2.26,2.26,0,0,0,.34-.76.52.52,0,0,0,0-.26.23.23,0,0,0-.09-.11s-.13-.07-.15-.06a.24.24,0,0,0-.11,0,1.47,1.47,0,0,0-.47.47,5.4,5.4,0,0,0-.77,3.51,2.42,2.42,0,0,0,.61,1.38,1.57,1.57,0,0,0,.24.21.68.68,0,0,0,.24.12,1,1,0,0,0,.5.05,3.6,3.6,0,0,0,1.4-.65,10.46,10.46,0,0,0,1.45-1.25c.46-.48.91-1,1.33-1.52s.84-1.1,1.18-1.62Z" style="fill:#ffc4c0"></path><path d="M524.08,372.37c-2.56,9.72-18.72,18.79-29.83,11.11-9.51-6.57-4.92-17.63,2.51-24,2.15-1.83,2.2-3.89-.16-3.57,0,0,6.84-6.17,9.58-12.38a6.73,6.73,0,0,1,1.74,3.33l4-3.33a37.82,37.82,0,0,1-5.23,10.15S528.81,354.4,524.08,372.37Z" style="fill:#ffc4c0"></path><path d="M496.6,355.94a53.7,53.7,0,0,0,4.54-4.75,33.49,33.49,0,0,0,5-7.62,6.73,6.73,0,0,1,1.74,3.33l4-3.33a36.75,36.75,0,0,1-3.56,7.62c-.49.83-1.05,1.67-1.67,2.52,0,0,22.11.69,17.37,18.66-2.56,9.72-18.73,18.8-29.83,11.11-9.51-6.57-4.92-17.63,2.51-24C498.91,357.69,499,355.62,496.6,355.94Z" style="fill:#ffc4c0"></path><path d="M496.6,355.94a53.7,53.7,0,0,0,4.54-4.75,33.49,33.49,0,0,0,5-7.62,6.73,6.73,0,0,1,1.74,3.33l4-3.33a36.75,36.75,0,0,1-3.56,7.62c-.49.83-1.05,1.67-1.67,2.52,0,0,22.11.69,17.37,18.66-2.56,9.72-18.73,18.8-29.83,11.11-9.51-6.57-4.92-17.63,2.51-24C498.91,357.69,499,355.62,496.6,355.94Z" style="opacity:0.1"></path><path d="M504.53,353.85c8.44-1,19.77,2.82,20.49,12.61,1,7.12-4,13.67-10.13,16.71,5.77-3.38,10.5-9.69,9.53-16.64-.78-9.51-11.67-13.06-19.89-12.68Z" style="fill:#263238"></path><path d="M552,359.94c1.82-2.75,3.69-7,8.3-10.65l-4.79,1.44,1.59-3a44.21,44.21,0,0,0-14.65,7.38C537.18,359.26,546.35,368.41,552,359.94Z" style="fill:#ffc4c0"></path><path d="M552,359.94c1.82-2.75,3.69-7,8.3-10.65l-4.79,1.44,1.59-3a44.21,44.21,0,0,0-14.65,7.38C537.18,359.26,546.35,368.41,552,359.94Z" style="opacity:0.1"></path><path d="M553,358.31a21.43,21.43,0,0,1-2.69,5.18,14.74,14.74,0,0,1,2.69-5.18Z" style="fill:#263238"></path><path d="M544.89,353.38c-1.55,1.48-3.39,2.7-5,4.08a12.23,12.23,0,0,1,5-4.08Z" style="fill:#263238"></path><path d="M539.24,356.6a4,4,0,0,1,2.63-1,14.46,14.46,0,0,1-2.63,1Z" style="fill:#263238"></path><path d="M551.44,363.13a2.34,2.34,0,0,1,.17-2.25,18.93,18.93,0,0,1-.17,2.25Z" style="fill:#263238"></path><path d="M548.25,390.75s-.7,4.92.12,6,7.88,4.52,9.52,6.16,10.41-11.41,9.68-12.6-12.64.82-16.12,2.68l-1.15-1.66Z" style="fill:#ffc4c0"></path><path d="M548.25,390.75s-.7,4.92.12,6,7.88,4.52,9.52,6.16,10.41-11.41,9.68-12.6-12.64.82-16.12,2.68l-1.15-1.66Z" style="opacity:0.1"></path><path d="M562.28,376.2a.68.68,0,0,1-.73.07,1.21,1.21,0,0,1-1.09.75s3.34,17.75-12,25.34-43.68,12.19-62.11-4.29c-11.88-10.61-14-38-.46-43.47,14.07-5.72,31.73-1,31.73-1s22.1-7.52,44.7,7.7c0,0,.11-.22,1.6.11s5.38,3.33,5.8,5.37-1.91,8.58-2.93,9.93S563.82,377.87,562.28,376.2Z" style="fill:#ffc4c0"></path><path d="M561.55,376.27a4.35,4.35,0,0,1-2-3.25,37.36,37.36,0,0,1,2,3.25Z" style="fill:#263238"></path><path d="M560.46,377a4.65,4.65,0,0,1-3.67-3.71,11,11,0,0,0,3.67,3.71Z" style="fill:#263238"></path><path d="M502.35,355.38c4.56,8.95-1.46,26.49-14.86,28.15C476,385,472.07,373.66,473.41,364c.38-2.79-1-4.37-2.5-2.56,0,0,1-9.15-1.1-15.61a6.73,6.73,0,0,1,3.52,1.33l.78-5.17A37.82,37.82,0,0,1,477,353S493.91,338.82,502.35,355.38Z" style="fill:#ffc4c0"></path><path d="M470.9,361.42a53.28,53.28,0,0,0,.22-6.57,33.38,33.38,0,0,0-1.31-9,6.76,6.76,0,0,1,3.52,1.33l.78-5.17a37,37,0,0,1,2.42,8.06c.18.94.33,1.94.43,3,0,0,17-14.21,25.38,2.35,4.57,8.95-1.45,26.49-14.85,28.15C476,385,472.08,373.66,473.41,364,473.79,361.19,472.45,359.61,470.9,361.42Z" style="fill:#ffc4c0"></path><path d="M475.42,354.57c5.65-6.34,16.64-11.05,23.69-4.23,5.47,4.67,6.11,12.87,3.57,19.21,2.05-6.36,1.38-14.22-4-18.76-6.91-6.57-17.39-2-23.28,3.78Z" style="fill:#263238"></path><path d="M539.68,351.47c-1.11-3.1-3.39-7.12-3.57-13l-1.71,4.7-1.41-3a44.14,44.14,0,0,0-2.85,16.14C530.29,362.92,543.1,361.05,539.68,351.47Z" style="fill:#ffc4c0"></path><path d="M539,349.69a20.55,20.55,0,0,1,2.54,5.25,15.05,15.05,0,0,1-2.54-5.25Z" style="fill:#263238"></path><path d="M530.19,353.22c.26,2.14.13,4.34.25,6.48a12.19,12.19,0,0,1-.25-6.48Z" style="fill:#263238"></path><path d="M529.39,359.68a4,4,0,0,1,.75-2.72,14.24,14.24,0,0,1-.75,2.72Z" style="fill:#263238"></path><path d="M541.92,353.81a2.34,2.34,0,0,1-1.7-1.48,18.39,18.39,0,0,1,1.7,1.48Z" style="fill:#263238"></path><path d="M548,374.64c.34,1.56,1,5.35,3.21,4.11,1-.9,1.31-2.32,1.81-3.59a5.55,5.55,0,0,1-1.17,4.3,2.17,2.17,0,0,1-3.2-.43,5.74,5.74,0,0,1-.65-4.39Z" style="fill:#263238"></path><path d="M562.28,361.28l.48-.06a6.59,6.59,0,0,1,1.12.18c1.48.32,5.38,3.33,5.8,5.37s-1.91,8.58-2.93,9.93-2.93,1.17-4.47-.5c-2.94-4.54-6.68-7.22-6.94-9.33S559.29,361.64,562.28,361.28Z" style="fill:#ffc4c0"></path><path d="M562.28,361.28l.48-.06a6.59,6.59,0,0,1,1.12.18c1.48.32,5.38,3.33,5.8,5.37s-1.91,8.58-2.93,9.93-2.93,1.17-4.47-.5c-2.94-4.54-6.68-7.22-6.94-9.33S559.29,361.64,562.28,361.28Z" style="opacity:0.1"></path><path d="M566.23,369.75c.14-1.75.77-3.13,1.41-3.08s1.05,1.51.91,3.26-.76,3.13-1.4,3.08S566.1,371.5,566.23,369.75Z" style="opacity:0.1"></path><path d="M561.17,370.19c-.56-1.83-.4-3.5.36-3.72s1.81,1.06,2.37,2.89.39,3.5-.37,3.73S561.72,372,561.17,370.19Z" style="opacity:0.1"></path><path d="M517.28,400.3a8.76,8.76,0,0,1-6.49,8.46l-.53-.07c-1.09-.14-2.18-.32-3.25-.54-1.31-.27-2.62-.58-3.91-.95a8.7,8.7,0,0,1-3.2-5.26,8.07,8.07,0,0,1-.16-1.64,8.77,8.77,0,1,1,17.54,0Z" style="fill:#498C79"></path><path d="M507.05,407.5a4.73,4.73,0,0,1,0,.65c-1.31-.27-2.62-.58-3.91-.95a45.7,45.7,0,0,1-6.77-2.53,5.68,5.68,0,0,1,3.57-2.73,5.45,5.45,0,0,1,1.41-.18A5.73,5.73,0,0,1,507.05,407.5Z" style="fill:#498C79"></path><path d="M530.88,407.83a1.48,1.48,0,0,1,0,.21,68.23,68.23,0,0,1-11.29,1.17,5.67,5.67,0,0,1-.17-1.38,5.74,5.74,0,1,1,11.47,0Z" style="fill:#498C79"></path><path d="M546.85,403.1a67,67,0,0,1-9.33,3.38,5.72,5.72,0,0,1,5-4.67,4.12,4.12,0,0,1,.7-.05,5.63,5.63,0,0,1,3,.83A3.93,3.93,0,0,1,546.85,403.1Z" style="fill:#498C79"></path><path d="M497.37,399.9a4,4,0,0,1-2.91,3.84,40.5,40.5,0,0,1-5-3.11,3.41,3.41,0,0,1-.07-.73,4,4,0,0,1,8,0Z" style="fill:#498C79"></path><circle cx="497.11" cy="393.08" r="2.14" style="fill:#498C79"></circle><circle cx="544.51" cy="401.2" r="2.14" style="fill:#498C79"></circle><path d="M518.17,408.12a3.73,3.73,0,0,1-.16,1.11,58.22,58.22,0,0,1-7.22-.47l-.53-.07a2.75,2.75,0,0,1-.05-.57,4,4,0,1,1,8,0Z" style="fill:#498C79"></path><g style="opacity:0.5"><path d="M517.28,400.3a8.76,8.76,0,0,1-6.49,8.46l-.53-.07c-1.09-.14-2.18-.32-3.25-.54-1.31-.27-2.62-.58-3.91-.95a8.7,8.7,0,0,1-3.2-5.26,8.07,8.07,0,0,1-.16-1.64,8.77,8.77,0,1,1,17.54,0Z"></path><path d="M507.05,407.5a4.73,4.73,0,0,1,0,.65c-1.31-.27-2.62-.58-3.91-.95a45.7,45.7,0,0,1-6.77-2.53,5.68,5.68,0,0,1,3.57-2.73,5.45,5.45,0,0,1,1.41-.18A5.73,5.73,0,0,1,507.05,407.5Z"></path><path d="M530.88,407.83a1.48,1.48,0,0,1,0,.21,68.23,68.23,0,0,1-11.29,1.17,5.67,5.67,0,0,1-.17-1.38,5.74,5.74,0,1,1,11.47,0Z"></path><path d="M546.85,403.1a67,67,0,0,1-9.33,3.38,5.72,5.72,0,0,1,5-4.67,4.12,4.12,0,0,1,.7-.05,5.63,5.63,0,0,1,3,.83A3.93,3.93,0,0,1,546.85,403.1Z"></path><path d="M497.37,399.9a4,4,0,0,1-2.91,3.84,40.5,40.5,0,0,1-5-3.11,3.41,3.41,0,0,1-.07-.73,4,4,0,0,1,8,0Z"></path><circle cx="497.11" cy="393.08" r="2.14"></circle><circle cx="544.51" cy="401.2" r="2.14"></circle><path d="M518.17,408.12a3.73,3.73,0,0,1-.16,1.11,58.22,58.22,0,0,1-7.22-.47l-.53-.07a2.75,2.75,0,0,1-.05-.57,4,4,0,1,1,8,0Z"></path></g><path d="M539.12,390.3s3.35,4.43,3.12,5.91-5.24,8.66-6,11.15S520,401.86,520,400.31s12.78-6.05,17.17-6.11l.24-2.24Z" style="fill:#ffc4c0"></path><path d="M537.43,392a7.7,7.7,0,0,1-.24,2.24,7.7,7.7,0,0,1,.24-2.24Z" style="fill:#263238"></path><path d="M539,394c-6.58.84-13.51,2.4-18.8,6.54a.2.2,0,0,0,.06-.14s0,0,0,0c1.9,2,4.54,3.35,7,4.67a23,23,0,0,0,6.75,2.38,5.4,5.4,0,0,0,1.64.06,1.31,1.31,0,0,0,.44-.57,32.87,32.87,0,0,1,2.2-4l1.92-3.1a18.88,18.88,0,0,0,1.86-3.56c-.14-2.26-1.77-4.13-3-6,1.32,1.8,3.06,3.67,3.25,6a17.15,17.15,0,0,1-1.81,3.73l-1.84,3.15a35.78,35.78,0,0,0-2.12,4,1.8,1.8,0,0,1-.69.82,4.67,4.67,0,0,1-2,0c-4.88-.85-9.26-3.34-13.16-6.31a4.57,4.57,0,0,1-1-1.08.47.47,0,0,1,0-.42,19.22,19.22,0,0,1,5.06-3.05A43.5,43.5,0,0,1,539,394Z" style="fill:#263238"></path></g><g id="freepik--Rooster--inject-23"><path d="M325.9,367.83c.32.24-.06,7.35-.57,7.72s-6.23-.25-6.52-.95S325.05,367.22,325.9,367.83Z" style="fill:#498C79"></path><path d="M339.15,455a8,8,0,0,1,6.31-2.64l-1.09-.28c-1.72-.44-3.1,0-4.79.06a.35.35,0,0,1-.21-.61c1.85-1.36,4.54-1.21,6.7-.19-.43-5.86.16-18.79.18-24.68a.38.38,0,0,1,.75,0c.81,6.13.49,19.31.35,25.49a5.56,5.56,0,0,1,.65.53,10.4,10.4,0,0,1,4.3,1.94c.28.23.09.75-.3.6a13.92,13.92,0,0,0-6.66-1c-2,.23-3.59,1.24-5.45,1.88C339.31,456.26,338.78,455.42,339.15,455Z" style="fill:#498C79"></path><path d="M339.15,455a8,8,0,0,1,6.31-2.64l-1.09-.28c-1.72-.44-3.1,0-4.79.06a.35.35,0,0,1-.21-.61c1.85-1.36,4.54-1.21,6.7-.19-.43-5.86.16-18.79.18-24.68a.38.38,0,0,1,.75,0c.81,6.13.49,19.31.35,25.49a5.56,5.56,0,0,1,.65.53,10.4,10.4,0,0,1,4.3,1.94c.28.23.09.75-.3.6a13.92,13.92,0,0,0-6.66-1c-2,.23-3.59,1.24-5.45,1.88C339.31,456.26,338.78,455.42,339.15,455Z" style="opacity:0.2"></path><path d="M345.85,457.87a7.94,7.94,0,0,1,6.32-2.64l-1.1-.29c-1.72-.44-3.09,0-4.79.07a.36.36,0,0,1-.21-.61c1.85-1.36,4.54-1.22,6.7-.19-.43-5.87.16-18.79.18-24.68a.39.39,0,0,1,.76,0c.8,6.14.48,19.31.35,25.49a6.76,6.76,0,0,1,.64.54,10.34,10.34,0,0,1,4.3,1.94c.28.22.09.75-.29.6a14,14,0,0,0-6.67-1c-2,.24-3.58,1.24-5.45,1.89C346,459.16,345.48,458.33,345.85,457.87Z" style="fill:#498C79"></path><path d="M367.86,392.32a85.12,85.12,0,0,0,3.14-9.47c1-4.14,1.88-12.74,9.81-15.22S403,377.74,403,378.71s-8.15-6.91-15.16-6-15.74,21-15.74,21Z" style="fill:#498C79"></path><path d="M370.12,392.78s3.9-15.66,8.86-18.5,16.49-.71,20.65,7.53,3.37,14.36,3,15-3.55-12.64-13.12-13.32-11.17,12.88-11.17,12.88Z" style="fill:#498C79"></path><path d="M374,394.46s4.4-6.89,12.53-4.85,12,10.82,11.24,11.08-5.9-5.4-11.24-4.7-7.81,2.66-7.81,2.66Z" style="fill:#498C79"></path><path d="M333.17,365.05s-7.43-2.59-8.9-6.32-1.87-11.19.53-12.71,4.61,3.59,4.61,3.59,6.64-10.43,14-7.92c1.13.38-2.9,9.22-2.9,9.22s8.45-6.49,10.66-6.18,5.5,10-4.45,14.83c0,0,8.18-1.36,9.34-.17s-3.9,8.65-8.81,9.26C340.51,369.47,333.17,365.05,333.17,365.05Z" style="fill:#498C79"></path><path d="M349.08,392.78s-5.61-21.57-9.63-27.48-10.46-6.8-13.82,2.42a79.07,79.07,0,0,0-4.08,18.73s-16.43,23.46,2.78,35.16c0,0,5.22,14.93,28.83,13.77,24-1.19,29.19-26.76,27.28-37.28s-9.21-9.42-12.58-5.78S349.08,392.78,349.08,392.78Z" style="fill:#498C79"></path><path d="M349.08,392.78s-5.61-21.57-9.63-27.48-10.46-6.8-13.82,2.42a79.07,79.07,0,0,0-4.08,18.73s-16.43,23.46,2.78,35.16c0,0,5.22,14.93,28.83,13.77,24-1.19,29.19-26.76,27.28-37.28s-9.21-9.42-12.58-5.78S349.08,392.78,349.08,392.78Z" style="opacity:0.4"></path><path d="M349.08,392.87s-5.61-21.58-9.63-27.49-10.46-6.79-13.82,2.42a79.07,79.07,0,0,0-4.08,18.73s-16.43,23.46,2.78,35.16c0,0,5.22,14.93,28.83,13.77,24-1.18,29.19-26.75,27.28-37.28s-9.21-9.42-12.58-5.78S349.08,392.87,349.08,392.87Z" style="fill:#498C79"></path><path d="M349.08,392.87s-5.61-21.58-9.63-27.49-10.46-6.79-13.82,2.42a79.07,79.07,0,0,0-4.08,18.73s-16.43,23.46,2.78,35.16c0,0,5.22,14.93,28.83,13.77,24-1.18,29.19-26.75,27.28-37.28s-9.21-9.42-12.58-5.78S349.08,392.87,349.08,392.87Z" style="opacity:0.4"></path><path d="M349.08,392.78c0,6.1-6.17,4-6.17,4s.17,2.75-1,3.75-6-.47-6-.47.62,5.41-4.43,6c-4,.49-7.8-5.75-7.8-5.75s-3.2,3-5.58,2.57-2-4.07-1.6-6v0a43.34,43.34,0,0,1,5.05-10.44,79.07,79.07,0,0,1,4.08-18.73c3.37-9.22,9.81-8.33,13.82-2.42S349.08,392.78,349.08,392.78Z" style="opacity:0.2"></path><path d="M328,371.44c0-.06.12.08.12.14-.14,1.49,0,3.22,1.43,3.8,0,0,0,.1,0,.09C327.76,375.13,327.63,372.83,328,371.44Z" style="fill:#263238"></path><path d="M329.58,370c2.65,0,2.57,4.81.12,4.83S327.36,370,329.58,370Z" style="fill:#263238"></path><path d="M338.86,404.7c.75,5.11,2.47,10.21,6.49,13.69,2,1.77,5.24,3.7,7.95,2.59,3.82-1.56,1.25-7.41.44-10.21-.1-.36.38-.72.63-.35,2.3,3.47,6.39,8.11,10.71,9,1.75.35,4.14-.14,5-2,.69-1.55-.12-3.42-.82-4.81a19.28,19.28,0,0,0-4.41-5.66.33.33,0,0,1,.41-.52,19.26,19.26,0,0,0,3,1.53c1.36.53,3.43,1.52,2.23-.94-.76-1.55-3.29-2.7-4.81-3.26-.29-.1-.1-.5.18-.42a10.16,10.16,0,0,1,4.32,2.49c.52.52,1.77,1.69,1.67,2.56-.19,1.64-2.79.72-4.78-.24,3.14,3.38,6.74,9.32,1.72,11.69s-10.19-2.74-13.42-6.85c.88,2.48,1.62,5.44.32,7.4-1.58,2.41-4.86,2-7.13,1-6.38-2.93-9.19-8.11-9.88-16.52C338.63,404.6,338.83,404.44,338.86,404.7Z" style="opacity:0.2"></path><path d="M323.31,375.62l-.65-.06c-1.23,2.58-4,10.15-3.29,11,.93,1.08,2.78-6.48,2.78-6.48s-1.62,9.06.64,9S323.31,375.62,323.31,375.62Z" style="fill:#498C79"></path></g><g id="freepik--Hens--inject-23"><path d="M137.51,443.28a6,6,0,0,0-4.77-2l.83-.22a11.87,11.87,0,0,1,3.62.05.26.26,0,0,0,.15-.46,5,5,0,0,0-5.06-.14c.33-4.43.44-8.85.42-13.29a.29.29,0,0,0-.57,0,92.38,92.38,0,0,0-.82,13.9,4.72,4.72,0,0,0-.48.41,7.8,7.8,0,0,0-3.25,1.46c-.21.17-.07.57.22.46a10.46,10.46,0,0,1,5-.73c1.53.17,2.71.94,4.12,1.42C137.39,444.26,137.79,443.63,137.51,443.28Z" style="fill:#498C79"></path><path d="M137.51,443.28a6,6,0,0,0-4.77-2l.83-.22a11.87,11.87,0,0,1,3.62.05.26.26,0,0,0,.15-.46,5,5,0,0,0-5.06-.14c.33-4.43.44-8.85.42-13.29a.29.29,0,0,0-.57,0,92.38,92.38,0,0,0-.82,13.9,4.72,4.72,0,0,0-.48.41,7.8,7.8,0,0,0-3.25,1.46c-.21.17-.07.57.22.46a10.46,10.46,0,0,1,5-.73c1.53.17,2.71.94,4.12,1.42C137.39,444.26,137.79,443.63,137.51,443.28Z" style="opacity:0.2"></path><path d="M133.07,444.58a6,6,0,0,0-4.77-2l.83-.22a11.8,11.8,0,0,1,3.61.05.27.27,0,0,0,.16-.46,5,5,0,0,0-5.06-.14c.33-4.43.44-8.85.42-13.29a.29.29,0,0,0-.57,0,91.09,91.09,0,0,0-.82,13.9c-.17.13-.33.27-.49.41a7.82,7.82,0,0,0-3.24,1.46c-.21.17-.07.57.22.46a10.44,10.44,0,0,1,5-.73c1.53.17,2.71.94,4.12,1.42C132.94,445.56,133.35,444.93,133.07,444.58Z" style="fill:#498C79"></path><path d="M153.37,396.34c-.25.16-.36,5.45,0,5.76s4.64.15,4.89-.36S154,395.93,153.37,396.34Z" style="fill:#498C79"></path><path d="M147.64,391c-1.06,3.42-5.86,4.75-9,5.11-2.22.25-7.28-.51-7.1-3.59.16-2.57,4-3.86,6.71-3.85-2.31-1.25-4.8-3-5.67-5.28a3.38,3.38,0,0,1,2.88-4.74c3.58-.44,6.67,2.15,8.9,4.64a12.8,12.8,0,0,1,2.86,4.61A4,4,0,0,1,147.64,391Z" style="fill:#498C79"></path><path d="M154.63,410.66c-2.12,13.47-11.17,25-29.95,23s-21.86-20-21.86-20c-4.55-3.94-6.58-9.79-5-13a2.22,2.22,0,0,1,2.38-1.39l.18,0,.23.05.38.13h0l.32.14.28.16a2.26,2.26,0,0,1,.26.16,5.79,5.79,0,0,1,.71.54,23.54,23.54,0,0,0,.34,5.55c.81,3.26,4.08,3.53,2.44-1.22a10.09,10.09,0,0,0-2.78-4.33l0-.6a2.81,2.81,0,0,0,0-.29c0-.23,0-.47.05-.69,0-.38.07-.75.11-1.12s.06-.58.11-.87v0c0-.3.09-.59.13-.89a.06.06,0,0,0,0,0c0-.28.11-.55.17-.82l0-.12a15.4,15.4,0,0,1,.39-1.49,8.12,8.12,0,0,1,1.21-2.54,2.11,2.11,0,0,1,.19-.23.85.85,0,0,1,.16-.17l.06-.07.17-.14a2.19,2.19,0,0,1,1.19-.51,2.24,2.24,0,0,1,.45,0l.17,0a1.19,1.19,0,0,1,.32.1l.23.1.16.09.19.13,0,0,.22.17.13.14a.57.57,0,0,1,.15.16,1.5,1.5,0,0,1,.2.23c.13.17.25.35.38.53s.23.4.34.62.11.22.16.33a7.76,7.76,0,0,1,.3.72c.05.12.09.24.14.37l.25.74.13.46.21.85c0,.14.06.29.1.43s.05.24.07.36c.09.47.17.94.24,1.4s.11.88.15,1.31v0c0,.29,0,.57.07.86l-.2.17a9.06,9.06,0,0,0-.82.82,2.05,2.05,0,0,0-.2.23c-.13.15-.26.31-.38.48l-.18.23c-.12.17-.24.34-.34.5h0a11.33,11.33,0,0,0-.72,1.24,7.58,7.58,0,0,0-.42.94.83.83,0,0,0-.08.22l-.08.21c-.81,2.58,1.84,3.19,3.06-.21a11.93,11.93,0,0,0,.41-3.83c0-.13,0-.26,0-.4l0-.6h0l.23-.18.22-.15.22-.14.22-.13a3.25,3.25,0,0,1,.44-.19,1.19,1.19,0,0,1,.23-.07l.19-.05.2,0h.25a2,2,0,0,1,1.24.4,2.45,2.45,0,0,1,.88,2.39c0,.12,0,.23,0,.36a.68.68,0,0,0,0,.15c0,.11,0,.23-.09.34v0l-.12.39-.09.27c0,.15-.1.3-.16.44A16.15,16.15,0,0,1,114,406.2l-.08.13,0,.08-.1.15-.08.12h.06l.14,0a.59.59,0,0,0,.17,0l.17,0,.41-.1.23-.06,1.53-.39.58-.15.56-.15.64-.17.2,0,.44-.11,4.4-1.17.52-.14,1-.29,1-.28.7-.2.78-.21c1.59-.46,3.12-.91,4.44-1.32l.74-.23.07,0,.69-.22.41-.14L134,401c.2-.06.39-.14.56-.2s0,0,0,0l.73-.28c.5-.22.79-.4.83-.52,1.26-4.16,5.58-12.58,10.75-11.55S156.56,398.46,154.63,410.66Z" style="fill:#498C79"></path><path d="M154.63,410.66c-2.12,13.47-11.17,25-29.95,23s-21.86-20-21.86-20c-4.55-3.94-6.58-9.79-5-13a2.22,2.22,0,0,1,2.38-1.39l.18,0,.23.05.38.13h0l.32.14.28.16a2.26,2.26,0,0,1,.26.16,5.79,5.79,0,0,1,.71.54,23.54,23.54,0,0,0,.34,5.55c.81,3.26,4.08,3.53,2.44-1.22a10.09,10.09,0,0,0-2.78-4.33l0-.6a2.81,2.81,0,0,0,0-.29c0-.23,0-.47.05-.69,0-.38.07-.75.11-1.12s.06-.58.11-.87v0c0-.3.09-.59.13-.89a.06.06,0,0,0,0,0c0-.28.11-.55.17-.82l0-.12a15.4,15.4,0,0,1,.39-1.49,8.12,8.12,0,0,1,1.21-2.54,2.11,2.11,0,0,1,.19-.23.85.85,0,0,1,.16-.17l.06-.07.17-.14a2.19,2.19,0,0,1,1.19-.51,2.24,2.24,0,0,1,.45,0l.17,0a1.19,1.19,0,0,1,.32.1l.23.1.16.09.19.13,0,0,.22.17.13.14a.57.57,0,0,1,.15.16,1.5,1.5,0,0,1,.2.23c.13.17.25.35.38.53s.23.4.34.62.11.22.16.33a7.76,7.76,0,0,1,.3.72c.05.12.09.24.14.37l.25.74.13.46.21.85c0,.14.06.29.1.43s.05.24.07.36c.09.47.17.94.24,1.4s.11.88.15,1.31v0c0,.29,0,.57.07.86l-.2.17a9.06,9.06,0,0,0-.82.82,2.05,2.05,0,0,0-.2.23c-.13.15-.26.31-.38.48l-.18.23c-.12.17-.24.34-.34.5h0a11.33,11.33,0,0,0-.72,1.24,7.58,7.58,0,0,0-.42.94.83.83,0,0,0-.08.22l-.08.21c-.81,2.58,1.84,3.19,3.06-.21a11.93,11.93,0,0,0,.41-3.83c0-.13,0-.26,0-.4l0-.6h0l.23-.18.22-.15.22-.14.22-.13a3.25,3.25,0,0,1,.44-.19,1.19,1.19,0,0,1,.23-.07l.19-.05.2,0h.25a2,2,0,0,1,1.24.4,2.45,2.45,0,0,1,.88,2.39c0,.12,0,.23,0,.36a.68.68,0,0,0,0,.15c0,.11,0,.23-.09.34v0l-.12.39-.09.27c0,.15-.1.3-.16.44A16.15,16.15,0,0,1,114,406.2l-.08.13,0,.08-.1.15-.08.12h.06l.14,0a.59.59,0,0,0,.17,0l.17,0,.41-.1.23-.06,1.53-.39.58-.15.56-.15.64-.17.2,0,.44-.11,4.4-1.17.52-.14,1-.29,1-.28.7-.2.78-.21c1.59-.46,3.12-.91,4.44-1.32l.74-.23.07,0,.69-.22.41-.14L134,401c.2-.06.39-.14.56-.2s0,0,0,0l.73-.28c.5-.22.79-.4.83-.52,1.26-4.16,5.58-12.58,10.75-11.55S156.56,398.46,154.63,410.66Z" style="fill:#fff;opacity:0.8"></path><path d="M143.18,413.19c-1.26,4.28-3.35,8.44-7.21,10.93-1.95,1.26-4.92,2.52-7.11,1.25-3.07-1.8-.17-6.5.86-8.79.13-.29-.24-.66-.49-.37-2.39,2.68-6.45,6.16-10.25,6.38-1.54.1-3.53-.62-4-2.3-.4-1.42.52-2.92,1.28-4a16.59,16.59,0,0,1,4.46-4.3.29.29,0,0,0-.29-.5,16.83,16.83,0,0,1-2.75.94c-1.23.29-3.12.89-1.79-1.07.84-1.23,3.14-1.91,4.51-2.2.25-.05.14-.42-.11-.38a8.66,8.66,0,0,0-4,1.6c-.51.38-1.73,1.23-1.74,2,0,1.44,2.3,1,4.11.38-3.09,2.52-6.89,7.16-2.88,9.79s9-1.11,12.3-4.23c-1.05,2-2,4.45-1.16,6.28,1.06,2.26,3.91,2.34,6,1.72,5.81-1.74,8.84-5.83,10.45-12.93C143.4,413.13,143.25,413,143.18,413.19Z" style="fill:#498C79"></path><path d="M150.93,399.42c0-.05-.12.07-.12.13.09,1.45-.08,3.12-1.5,3.64-.05,0,0,.09,0,.08C151.07,403,151.27,400.78,150.93,399.42Z" style="fill:#263238"></path><path d="M149.48,397.94c-2.56-.11-2.65,4.57-.28,4.67S151.62,398,149.48,397.94Z" style="fill:#263238"></path><path d="M397.26,457.05a6,6,0,0,1,4.77-2l-.83-.22a11.87,11.87,0,0,0-3.62.05.26.26,0,0,1-.15-.46,5,5,0,0,1,5.06-.14c-.33-4.43-.44-8.85-.42-13.3a.29.29,0,0,1,.57,0,92.31,92.31,0,0,1,.82,13.9l.49.4a8,8,0,0,1,3.24,1.47c.21.17.07.57-.22.45a10.58,10.58,0,0,0-5-.73,19.15,19.15,0,0,0-4.12,1.43C397.38,458,397,457.39,397.26,457.05Z" style="fill:#498C79"></path><path d="M397.26,457.05a6,6,0,0,1,4.77-2l-.83-.22a11.87,11.87,0,0,0-3.62.05.26.26,0,0,1-.15-.46,5,5,0,0,1,5.06-.14c-.33-4.43-.44-8.85-.42-13.3a.29.29,0,0,1,.57,0,92.31,92.31,0,0,1,.82,13.9l.49.4a8,8,0,0,1,3.24,1.47c.21.17.07.57-.22.45a10.58,10.58,0,0,0-5-.73,19.15,19.15,0,0,0-4.12,1.43C397.38,458,397,457.39,397.26,457.05Z" style="opacity:0.2"></path><path d="M401.7,458.35a6,6,0,0,1,4.77-2l-.83-.22a11.8,11.8,0,0,0-3.61.05.27.27,0,0,1-.16-.46,5,5,0,0,1,5.06-.14c-.33-4.43-.44-8.85-.42-13.3a.29.29,0,0,1,.57,0,91.09,91.09,0,0,1,.82,13.9,6.26,6.26,0,0,1,.49.41,7.82,7.82,0,0,1,3.24,1.46c.21.17.07.57-.22.45a10.69,10.69,0,0,0-5-.73,19.15,19.15,0,0,0-4.12,1.43C401.83,459.33,401.42,458.7,401.7,458.35Z" style="fill:#498C79"></path><path d="M370.29,433.61c.29-.07,4,3.67,4,4.13s-3.23,3.34-3.76,3.15S369.54,433.77,370.29,433.61Z" style="fill:#498C79"></path><path d="M372.5,424.44c2.08-.09,3.54-2.61,4.2-4.31.46-1.22.77-4.19-1-4.53-1.47-.29-2.77,1.7-3.16,3.22-.36-1.48-1-3.15-2.14-4a2,2,0,0,0-3.1.93c-.78,2,.23,4.08,1.31,5.7a7.39,7.39,0,0,0,2.19,2.29A2.31,2.31,0,0,0,372.5,424.44Z" style="fill:#498C79"></path><path d="M379.35,444.77c10.9,8.2,25.4,10.18,37.54-4.28s1.81-29.55,1.81-29.55c.53-6-2.07-11.61-5.42-12.82a2.2,2.2,0,0,0-2.67.66,1,1,0,0,0-.11.15.91.91,0,0,0-.13.19,2.31,2.31,0,0,0-.18.35l0,0c0,.1-.09.21-.13.32l-.09.31a1.67,1.67,0,0,0-.08.3,8.1,8.1,0,0,0-.13.88,24.21,24.21,0,0,1,3.62,4.22c1.68,2.91-.48,5.38-2.61.83a10.19,10.19,0,0,1-1-5.05l-.44-.41-.21-.2-.52-.46c-.28-.25-.57-.5-.85-.73L407,399l0,0-.72-.55,0,0c-.22-.17-.45-.32-.68-.47l-.1-.07a14.53,14.53,0,0,0-1.32-.8,8.27,8.27,0,0,0-2.63-1l-.3,0a.91.91,0,0,0-.23,0h-.1l-.21,0a2.14,2.14,0,0,0-1.21.46,1.62,1.62,0,0,0-.32.32l-.1.14a1.08,1.08,0,0,0-.16.3.67.67,0,0,0-.1.23.84.84,0,0,0-.05.17,1.55,1.55,0,0,0-.05.23v0a2.66,2.66,0,0,0,0,.28,1.28,1.28,0,0,0,0,.19,1.62,1.62,0,0,0,0,.22c0,.1,0,.2,0,.3s.07.43.11.65a6.24,6.24,0,0,0,.18.68c0,.12.07.24.11.35s.18.48.29.73.1.24.16.36.21.46.33.7l.23.43c.14.25.29.5.44.75s.15.25.23.38l.2.31c.25.4.52.79.8,1.17s.53.71.8,1.05h0l.55.67.26,0a9.2,9.2,0,0,1,1.17,0l.3,0,.6.07.29.05a5.31,5.31,0,0,1,.6.12h0a13.16,13.16,0,0,1,1.38.39,9.88,9.88,0,0,1,.95.38,1,1,0,0,1,.21.1l.2.1c2.39,1.29.91,3.58-2.33,2a11.88,11.88,0,0,1-3-2.47l-.28-.29-.39-.46h0l-.29,0-.27,0-.25.06-.25.06a3,3,0,0,0-.45.17l-.21.1-.17.1a.88.88,0,0,0-.17.12l-.19.16a2,2,0,0,0-.61,1.15,2.45,2.45,0,0,0,1,2.33l.28.22.13.09a2.9,2.9,0,0,0,.29.19l0,0,.36.21.25.13.43.2a14.73,14.73,0,0,0,2.4.83l.15,0,.09,0,.17,0,.15,0-.05,0-.13.07-.15.09-.15.08-.37.21L405,414l-1.36.78-.52.3-.51.29-.58.32-.17.1c-.14.07-.27.15-.4.23-1.21.67-2.57,1.44-4,2.21l-.47.26c-.31.18-.63.35-.95.52l-.94.52-.64.35c-.24.12-.48.25-.71.39-1.46.78-2.87,1.52-4.11,2.14l-.69.35-.07,0c-.22.12-.44.22-.65.32l-.39.18-.32.15-.54.24h0q-.39.18-.72.3c-.51.19-.84.27-1,.21-3.79-2.11-12.75-5.16-15.75-.83S369.48,437.35,379.35,444.77Z" style="fill:#498C79"></path><path d="M379.35,444.77c10.9,8.2,25.4,10.18,37.54-4.28s1.81-29.55,1.81-29.55c.53-6-2.07-11.61-5.42-12.82a2.2,2.2,0,0,0-2.67.66,1,1,0,0,0-.11.15.91.91,0,0,0-.13.19,2.31,2.31,0,0,0-.18.35l0,0c0,.1-.09.21-.13.32l-.09.31a1.67,1.67,0,0,0-.08.3,8.1,8.1,0,0,0-.13.88,24.21,24.21,0,0,1,3.62,4.22c1.68,2.91-.48,5.38-2.61.83a10.19,10.19,0,0,1-1-5.05l-.44-.41-.21-.2-.52-.46c-.28-.25-.57-.5-.85-.73L407,399l0,0-.72-.55,0,0c-.22-.17-.45-.32-.68-.47l-.1-.07a14.53,14.53,0,0,0-1.32-.8,8.27,8.27,0,0,0-2.63-1l-.3,0a.91.91,0,0,0-.23,0h-.1l-.21,0a2.14,2.14,0,0,0-1.21.46,1.62,1.62,0,0,0-.32.32l-.1.14a1.08,1.08,0,0,0-.16.3.67.67,0,0,0-.1.23.84.84,0,0,0-.05.17,1.55,1.55,0,0,0-.05.23v0a2.66,2.66,0,0,0,0,.28,1.28,1.28,0,0,0,0,.19,1.62,1.62,0,0,0,0,.22c0,.1,0,.2,0,.3s.07.43.11.65a6.24,6.24,0,0,0,.18.68c0,.12.07.24.11.35s.18.48.29.73.1.24.16.36.21.46.33.7l.23.43c.14.25.29.5.44.75s.15.25.23.38l.2.31c.25.4.52.79.8,1.17s.53.71.8,1.05h0l.55.67.26,0a9.2,9.2,0,0,1,1.17,0l.3,0,.6.07.29.05a5.31,5.31,0,0,1,.6.12h0a13.16,13.16,0,0,1,1.38.39,9.88,9.88,0,0,1,.95.38,1,1,0,0,1,.21.1l.2.1c2.39,1.29.91,3.58-2.33,2a11.88,11.88,0,0,1-3-2.47l-.28-.29-.39-.46h0l-.29,0-.27,0-.25.06-.25.06a3,3,0,0,0-.45.17l-.21.1-.17.1a.88.88,0,0,0-.17.12l-.19.16a2,2,0,0,0-.61,1.15,2.45,2.45,0,0,0,1,2.33l.28.22.13.09a2.9,2.9,0,0,0,.29.19l0,0,.36.21.25.13.43.2a14.73,14.73,0,0,0,2.4.83l.15,0,.09,0,.17,0,.15,0-.05,0-.13.07-.15.09-.15.08-.37.21L405,414l-1.36.78-.52.3-.51.29-.58.32-.17.1c-.14.07-.27.15-.4.23-1.21.67-2.57,1.44-4,2.21l-.47.26c-.31.18-.63.35-.95.52l-.94.52-.64.35c-.24.12-.48.25-.71.39-1.46.78-2.87,1.52-4.11,2.14l-.69.35-.07,0c-.22.12-.44.22-.65.32l-.39.18-.32.15-.54.24h0q-.39.18-.72.3c-.51.19-.84.27-1,.21-3.79-2.11-12.75-5.16-15.75-.83S369.48,437.35,379.35,444.77Z" style="fill:#fff;opacity:0.8"></path><path d="M389.33,438.62c3.88,2.2,8.28,3.74,12.78,2.84,2.29-.45,5.3-1.6,6-4,1-3.43-4.39-4.79-6.72-5.72-.3-.12-.29-.64.09-.61,3.59.27,8.92-.06,11.8-2.54,1.17-1,2.11-2.9,1.28-4.44-.69-1.3-2.4-1.74-3.71-2a16.57,16.57,0,0,0-6.2,0,.29.29,0,0,1-.14-.56,16.22,16.22,0,0,0,2.63-1.24c1.09-.64,2.86-1.53.55-2-1.46-.3-3.59.8-4.78,1.55-.21.14-.39-.2-.19-.34a8.64,8.64,0,0,1,4-1.63c.63-.08,2.1-.31,2.63.21,1,1-1,2.29-2.69,3.14,4-.35,9.93.35,8.88,5s-7.27,5.49-11.79,5.51c2.16.72,4.56,1.79,5.21,3.71.8,2.36-1.19,4.4-3.1,5.39-5.39,2.79-10.41,2-16.5-2C389.14,438.73,389.14,438.51,389.33,438.62Z" style="fill:#498C79"></path><path d="M373.85,433.82c0-.06.14,0,.17.05.65,1.29,1.64,2.65,3.13,2.38.05,0,.08.06,0,.08C375.53,437,374.24,435.16,373.85,433.82Z" style="fill:#263238"></path><path d="M374.36,431.81c2.15-1.39,4.58,2.61,2.59,3.89S372.56,433,374.36,431.81Z" style="fill:#263238"></path></g></svg>
